<svg xmlns="http://www.w3.org/2000/svg" viewBox="0 0 144.95 156.27">
  <defs>
    <style>
      .a {
        fill: #fff;
      }
    </style>
  </defs>
  <title>logo_white</title>
  <g>
    <g>
      <path class="a" d="M34.21,112.24c3.61,0,6.11,1.38,7.5,4.12a5.65,5.65,0,0,1,.37,1.78v.11q0,6.12-15.43,14.61c-1,.45-1.48.77-1.48,1a19.8,19.8,0,0,0-.23,2.89q0,5.26,3.38,6.68a4.52,4.52,0,0,0,1.85.37q4.71,0,11.2-8.27,2.9-4,2.93-.82a8.1,8.1,0,0,1-1.52,5.19c-.89,1.17-1.88,2.36-3,3.6a26.7,26.7,0,0,1-5.34,4.6,13.82,13.82,0,0,1-7.38,2.59q-5.07,0-8.64-5.63a18.56,18.56,0,0,1-2.19-9,29.51,29.51,0,0,1,4-14.13Q25.95,112.25,34.21,112.24ZM20.57,135.53v1A16.11,16.11,0,0,0,22,143.28h0a23.78,23.78,0,0,1-1.19-7,29.48,29.48,0,0,1,4.31-14.58v0A28.13,28.13,0,0,0,21,131.38,22.58,22.58,0,0,0,20.57,135.53Zm5.67-5.89h.15a41.52,41.52,0,0,0,5.86-4.16q4.71-4.33,4.71-6v-.34c-.1-.42-.42-.63-1-.63h-.07q-3.78,0-7.71,6.72A25.22,25.22,0,0,0,26.24,129.64Z"/>
      <path class="a" d="M51,112.17q1.71,0,4.56,3.48a6.49,6.49,0,0,1,1.3,2.9q0,.11-1.56,4.08Q54,125.78,57,126t4.08.21c1.21,0,1.82.57,1.82,1.7q0,1.46-2.89,10.72a19.67,19.67,0,0,0-.82,3.49v.37a.2.2,0,0,0,.22.22q.85-.3,3.12-3.3,1.66-2.29,3.23-4.52,1.89-2.75,2.41,0A8.34,8.34,0,0,1,67,140.58c-.82,1.46-1.62,2.8-2.41,4q-3.9,5.72-7.2,5.71c-1.08-.12-2.54-1.14-4.37-3a5.89,5.89,0,0,1-1.75-3.41c0-.72.7-3.19,2.08-7.42a18.57,18.57,0,0,0,1.15-3.86c0-.39-.26-.59-.78-.59-.86-.37-1.6.24-2.2,1.82s-1.06,2.74-1.36,3.48a5.14,5.14,0,0,1-4.43,1.62c-1.92-.11-2.87-.54-2.87-1.28,0,0-.09-.13-.12-.37q0-1.6,5.53-19.84,1.38-4.12,1.78-5A1.76,1.76,0,0,1,51,112.17Zm1.41,5.6a78.72,78.72,0,0,0-3.23,9.6,5.65,5.65,0,0,1-.11.56v0h0c.81-2.35,1.93-5.74,3.33-10.16v0Zm5.86,13.68A88.1,88.1,0,0,0,55.06,143v0h0c1.53-5.48,2.59-9.33,3.15-11.53v0Z"/>
      <path class="a" d="M102.14,83.32h.07c1.28,0,3.19,1.38,5.71,4.15a6.59,6.59,0,0,1,1.63,3q-2.85,9.68-8.82,33.82-4.16,16.83-4.16,17.91v.08a.28.28,0,0,0,.19.29h.11q.81-.25,2.82-3c.89-1.16,1.83-2.44,2.82-3.82,1.33-1.93,2.3-2.18,2.89-.76s.28,3.21-.93,5.36c-.74,1.36-1.46,2.58-2.15,3.67q-4,6.19-7.68,6.19c-1.38,0-3-1-4.93-3a5.68,5.68,0,0,1-1.59-3.41L89.23,138a13.78,13.78,0,0,0-1.34,1.82q-7.74,10.33-12.46,10.34h-.15a8.49,8.49,0,0,1-3.82-1.26q-4.26-3.07-4.26-10.16v-.33q0-7.45,4.34-16a28.87,28.87,0,0,1,3.93-5.56q4.16-4.53,8.34-4.53,4.64,0,8.39,5.46l1,1.63h0q2.3-10.6,5.86-25.81,2.14-10,2.26-10A1.27,1.27,0,0,1,102.14,83.32ZM71.39,137.39v.48a15.31,15.31,0,0,0,.37,3.63h0c-.1-1.18-.15-2.1-.15-2.74q0-9.42,6.9-19.06c.27-.3.41-.5.41-.6a25.61,25.61,0,0,0-3.08,4.19Q71.4,130.54,71.39,137.39Zm.37,4.19v.07a.07.07,0,0,0,.08.08v-.08C71.84,141.6,71.81,141.58,71.76,141.58Zm4.08-1.89v.48c0,1.19.37,1.88,1.11,2.08a.92.92,0,0,0,.45.14h.37q2.7,0,12-12.23A11.31,11.31,0,0,0,91.38,128v-.08a18.17,18.17,0,0,0-1.56-4.67q-1.74-3.19-4-3.19h-.4c-1.71,0-3.59,1.91-5.64,5.71a47.24,47.24,0,0,0-3.08,8.16A27.67,27.67,0,0,0,75.84,139.69ZM103,97.15q-4.86,18-8.86,39.46v.15h0q2.67-11.61,8.87-39.57v0Z"/>
      <path class="a" d="M125.54,112.06a11.1,11.1,0,0,1,4.53,1.3q3.78,2.44,3.78,7.82v.19s0,0,0,0l0,.11v.3q0,6.09-4.37,14.8l-1.15,2s0,0,0,0a8.52,8.52,0,0,0,3.86-1.59,19.27,19.27,0,0,0,2.86-2.6c.81-.89,1.5-.72,2,.52a2.94,2.94,0,0,1-.83,3.52q-4.34,4.28-9.16,4.27H127c-.27,0-.69,0-1.26,0a19.45,19.45,0,0,1-2.86,3.38q-4.74,4.22-9.34,4.22t-7.68-4.37a15.72,15.72,0,0,1-2-8.12q0-7.31,4.08-16.47a24.37,24.37,0,0,1,4.56-6.86,3.7,3.7,0,0,1,2.11-1.11c.79,0,1.43.73,1.93,2.18a3.9,3.9,0,0,1,.33.89H117Q120.84,112.07,125.54,112.06Zm-18.09,24.7v1.3a18.72,18.72,0,0,0,.44,4.07H108a24.88,24.88,0,0,1-.3-3.74,26.49,26.49,0,0,1,5.52-16.17v0a21.31,21.31,0,0,0-3.3,4.9A22.5,22.5,0,0,0,107.45,136.76Zm5.37-2.3a10.67,10.67,0,0,0-.81,4c0,2.45.91,4.1,2.74,5a4.36,4.36,0,0,0,1.49.26,6,6,0,0,0,3.59-1.41v-.07a11.55,11.55,0,0,1-4.22-2.53,8.54,8.54,0,0,1-2.23-3.33,7.81,7.81,0,0,1-.48-1.93Zm4.79-5q0,5,3.34,7.57a6.58,6.58,0,0,0,2.59,1.11,11,11,0,0,0,1.41-2.08q4.2-7.89,4.19-12.2v-.44q0-4.12-4.08-4.12-4.26,0-6.86,6.27A13.3,13.3,0,0,0,117.61,129.45Zm11.64-12.61v.08c1.64,1.26,2.45,3.24,2.45,5.93a24.49,24.49,0,0,1-.59,4.49v0h0a17.54,17.54,0,0,0,.74-4.74Q131.89,118.58,129.25,116.84Z"/>
    </g>
    <g>
      <path class="a" d="M48.9,64.91q1.47,0,3.75,3a5.24,5.24,0,0,1,1.13,2.5l-1,3.54q-1.92,7.21-3.53,15.6v.09c0,.19.06.28.12.28h.09a7.61,7.61,0,0,0,2.31-2.41c1.59-2.17,2.5-3.44,2.75-3.81.49-.83,1-.49,1.38,1a5.59,5.59,0,0,1-1,4.75,30.32,30.32,0,0,1-1.76,2.71q-2.89,4-5.37,4c-.67,0-1.76-.69-3.26-2.08-1.18-1.28-1.77-2.35-1.77-3.23l.83-4.17h-.06c-1.2,1.6-2.26,3-3.17,4.08q-4.7,5.4-7.78,5.4h-.12a6.48,6.48,0,0,1-3-1q-3.66-2.4-3.66-8.56A29.18,29.18,0,0,1,29.7,72.8,25.54,25.54,0,0,1,33,68.32q3.3-3.22,6.37-3.23h.06c2.62,0,5,1.57,7,4.69a6.63,6.63,0,0,0,.46.74,30.93,30.93,0,0,0,1-4.27,3.19,3.19,0,0,1,.36-1.16A1.31,1.31,0,0,1,48.9,64.91Zm-19.69,22v.12a12.08,12.08,0,0,0,.31,3h0c-.06-.63-.11-1.36-.16-2.19q0-7.94,6-16c.06,0,.1-.06.12-.19a22.55,22.55,0,0,0-2.41,3.2A22.46,22.46,0,0,0,29.21,86.94Zm.31,3.2v.09a.05.05,0,0,0,.06.06v-.06Q29.58,90.14,29.52,90.14Zm3.38-2.62V88c0,.89.29,1.44.88,1.64a1.16,1.16,0,0,0,.49.13h.15q2.38,0,10.18-10.37a2.09,2.09,0,0,0,.76-1.52,3.29,3.29,0,0,0,.16-.76,16.51,16.51,0,0,0-1-2.93Q43,71.4,41.13,71.4h-.34q-1.92,0-4.17,3.87A31.61,31.61,0,0,0,32.9,87.52Zm2.62-15.94v0a.05.05,0,0,0,.06-.06v0A.05.05,0,0,0,35.52,71.58Zm14.75-.67a173.63,173.63,0,0,0-3.87,17.8c0,.2-.1.63-.18,1.28a21.49,21.49,0,0,0,.58-2.47q3.5-16.45,3.5-16.58v0Z"/>
      <path class="a" d="M58.57,64.85l.15.06H59q2.3,0,11.77.85c.85,0,1.94.07,3.26.09a37.58,37.58,0,0,0,8.38-.94c.77,0,1.65,1,2.62,3a5.28,5.28,0,0,1,.49,1.74v.09c0,.25-.32.56-1,1q-3,2.19-10.27,7.13l0,.06a15.14,15.14,0,0,1,5.12,1.43A11.74,11.74,0,0,1,85,85.69a14.2,14.2,0,0,1,.82,4.85q0,7.74-6.91,16.18a48.47,48.47,0,0,1-5.83,5.7,66.35,66.35,0,0,1-9,6.28,6.77,6.77,0,0,1-1.95.94H62q-2.77-.18-8.47-3.65-3-2-3.14-3.11c.1-.49.54-.73,1.31-.73a1,1,0,0,1,.24,0l1.77,0q7.68,0,15.88-5.61a40.82,40.82,0,0,0,4.48-3.81,26.4,26.4,0,0,0,4.11-5.52,13.75,13.75,0,0,0,2-6.61V90a8.18,8.18,0,0,0-8.29-8.11h-.46a13.21,13.21,0,0,0-4.15.73c0,.09-.2.15-.61.19A13.51,13.51,0,0,1,61,80.66q-1.71-1.16-1.71-2c0-.3.2-.45.61-.45a68.17,68.17,0,0,0,10.7-3.42,35.74,35.74,0,0,0,5.88-3.47c1-.81,1.61-1.23,1.67-1.25V70h0a114.22,114.22,0,0,0-15.91,1.67q-.66,0-2.28-2-1.77-2.49-1.77-3.87v-.12A.88.88,0,0,1,58.57,64.85ZM64,68.26q0,.09.09.09h2.44q3.78,0,8.93-.43l0-.09Q68.72,68.15,64,68.26Zm3.42,9.87v.07q5.06-1.44,11.76-6.34V71.8A71.52,71.52,0,0,1,70,77.07,21.3,21.3,0,0,1,67.44,78.13Zm14,6.44a10.75,10.75,0,0,1,1.7,5.69q0,7.11-8.8,16.13a43.9,43.9,0,0,1-4.73,4.11v.06a35.78,35.78,0,0,0,5.85-5q7.83-8.16,7.84-15.14a10.39,10.39,0,0,0-1.8-5.88Z"/>
    </g>
    <path class="a" d="M106.38,19.77q1.94.48,4.25,3.36a3.59,3.59,0,0,1,.74,1.68q-1,4.62-1.26,4.62a1.08,1.08,0,0,1-.58.16q-1.57,0-4-3.36a3.74,3.74,0,0,1-.78-1.84l1.36-4.51A.85.85,0,0,1,106.38,19.77Z"/>
    <path class="a" d="M124.83,94.58q2,.47,4.26,3.36a3.47,3.47,0,0,1,.73,1.68q-1,4.62-1.26,4.62a1.14,1.14,0,0,1-.58.15c-1,0-2.39-1.12-4-3.36a3.88,3.88,0,0,1-.79-1.83l1.37-4.52A.76.76,0,0,1,124.83,94.58Z"/>
    <path class="a" d="M123.65,98.66q1.93.47,4.25,3.36a3.47,3.47,0,0,1,.73,1.68q-1,4.62-1.26,4.62a1.11,1.11,0,0,1-.57.16q-1.58,0-4-3.37a3.75,3.75,0,0,1-.78-1.83l1.36-4.52A.79.79,0,0,1,123.65,98.66Z"/>
    <path class="a" d="M133.52,97.58c1.29.31,2.71,1.44,4.25,3.36a3.59,3.59,0,0,1,.74,1.68q-1,4.62-1.26,4.62a1.08,1.08,0,0,1-.58.16q-1.57,0-4-3.36a3.77,3.77,0,0,1-.79-1.84l1.36-4.52A.79.79,0,0,1,133.52,97.58Z"/>
    <path class="a" d="M132.36,101.62q1.95.48,4.26,3.36a3.55,3.55,0,0,1,.73,1.68q-1,4.62-1.26,4.62a1.06,1.06,0,0,1-.58.16c-1,0-2.39-1.12-4-3.36a3.86,3.86,0,0,1-.79-1.84l1.37-4.51A.82.82,0,0,1,132.36,101.62Z"/>
    <g>
      <path class="a" d="M51.18,5.8q8.68.65,10.91,9a32.72,32.72,0,0,1,.62,10.12A94.86,94.86,0,0,1,60.61,38h0q4.32.3,18.45-.31,2.22-10.09,3.67-15.27,1.9-7.59,4-13.73a1.19,1.19,0,0,1,.8-.27c1.15.08,2.68,1.48,4.57,4.19a7.49,7.49,0,0,1,1.35,3.27,158.69,158.69,0,0,0-6.44,21.35q0,.09.09.09,5.43.12,8.85.37c.31,0,.5.37.56,1.05v.06c-.1,1.19-1.23,2.88-3.36,5.06-1.44,1.27-2.43,1.89-3,1.85-1-.13-2.55-.26-4.69-.4l-.16,0a135.07,135.07,0,0,0-2.09,15.45,63.46,63.46,0,0,0,0,10.7,1.58,1.58,0,0,1-1.52.87c-1.46-.11-3.32-1.46-5.58-4.08A4.39,4.39,0,0,1,75,65.11c0-1.07.05-1.93.09-2.59a168.11,168.11,0,0,1,2.47-17.24h0q-12.61-.49-18.54-.5c-.08.11-.53,1.66-1.33,4.66Q54.44,59.87,54,61.81a18.56,18.56,0,0,0-.31,2l-.06,1a30.63,30.63,0,0,0,.25,5.06c0,.37-.56.51-1.61.43l-.27,0q-4.29-.32-5.52-4.93a13,13,0,0,1-.19-3.06,41.89,41.89,0,0,1,2.22-8.6c1.3-4,2.22-7,2.78-8.89h0q-3.89,0-7.31,0a1.75,1.75,0,0,1-1-.58,1.63,1.63,0,0,1-.25-.93c.11-1.23,1.16-2.81,3.18-4.72a5.22,5.22,0,0,1,2.65-1.45c1.24.17,2.83.34,4.78.53a63.2,63.2,0,0,0,2.22-11.69l.07-1q.55-7.56-3.15-10.06A6.47,6.47,0,0,0,49.57,14l-.25,0q-6-.43-16.28,6.76A61.08,61.08,0,0,0,27,25.63a62.26,62.26,0,0,0-7.77,8.48c-3,4.2-4.67,7.78-4.87,10.77a6.12,6.12,0,0,0,3,6.16,7,7,0,0,0,2.62.71q3.56.28,8.3-3.42t5.27-3.73l.4,0q2,.15,6.11,2.65c1.61,1.11,2.4,2,2.38,2.65,0,.23-.46.67-1.3,1.33a38.64,38.64,0,0,1-4,2.81,43,43,0,0,1-7.31,3.45,30.7,30.7,0,0,1-11.53,1.73,13.32,13.32,0,0,1-8.12-3.12A15,15,0,0,1,6.08,44.32q.68-9.63,11-21a80.79,80.79,0,0,1,6-5.59,62.38,62.38,0,0,1,8.39-5.89A47.67,47.67,0,0,1,38.78,8.2Q45.83,5.43,51.18,5.8Zm-40.35,37a12.6,12.6,0,0,0,.43-2,31.16,31.16,0,0,1,1.61-4.81,36.33,36.33,0,0,1,4-6.79,43.44,43.44,0,0,1,5.52-5.82,53.36,53.36,0,0,1,7.18-5.46,63.26,63.26,0,0,1,8.55-4.6,48.7,48.7,0,0,1,6.57-2.47v0h0a40.87,40.87,0,0,0-6.26,2,60.69,60.69,0,0,0-9.26,4.84A50.59,50.59,0,0,0,17,28.4Q11.33,35.69,10.83,42.75ZM20.21,56a9.35,9.35,0,0,1-2.84-.68h0v0a8.75,8.75,0,0,0,3.33.93q5.55.36,12.28-5.15l.55-.59v0a24.76,24.76,0,0,1-4.69,3.24Q23.91,56.22,20.21,56Zm30.38,3.3,0,.06q.09,0,.09-.06v-.06A.05.05,0,0,0,50.59,59.25Zm8.27-38.86c0,1.66,0,3.82-.19,6.47A79.36,79.36,0,0,1,53.89,48,95.25,95.25,0,0,0,51,57.34c-.12.41-.26,1-.4,1.75a15.66,15.66,0,0,0,.68-2.34q0-.37,4.5-13.6a68.41,68.41,0,0,0,3-15.36,59.56,59.56,0,0,0,.1-7.4Zm0-.38,0,.16a.11.11,0,0,0,.1.06v-.12C58.92,20.05,58.9,20,58.86,20Zm3,21.53,0,.1q4.07.27,13.94,0l.06-.06Zm17.43,18.7,0,.18c.07,0,.1,0,.1-.06v-.19S79.31,60.19,79.31,60.24Zm7.4-37.11Q84.12,31.31,80.6,52q-.9,5.34-1.26,8.08a22.6,22.6,0,0,0,.71-3.61q4-21.9,6.69-33.31v0Zm13.2,26.19v.21a.05.05,0,0,0,.06-.06l0-.21A.1.1,0,0,0,99.91,49.32Z"/>
      <path class="a" d="M102.66,34.51c1,0,2.33,1.07,3.92,3.21a5.14,5.14,0,0,1,1,2.34q-2.13,6.86-4.6,19a5,5,0,0,0,0,.53.34.34,0,0,0,.12.18h.1q.61-.15,2.22-2.34,1.38-1.78,2.93-4c.92-1.34,1.63-1.42,2.12-.26s.28,2.58-.64,4.27c-.72,1.3-1.43,2.51-2.13,3.64q-3.39,5.06-6.2,5.06c-1.17-.23-2.5-1.18-4-2.87a4.55,4.55,0,0,1-1.08-2.41v-.12q2.4-12.58,5.46-25.94A1.1,1.1,0,0,1,102.66,34.51Zm1.45,6.2a178.89,178.89,0,0,0-4,18.63,5.59,5.59,0,0,1-.06.56,16.29,16.29,0,0,0,.52-2.13q3.61-16.87,3.61-17v0Zm1.27-17.24h.12c1,0,2.34,1.14,4,3.42a5.27,5.27,0,0,1,.86,2.13c0,.06-.17.66-.52,1.79l-.9,3a.74.74,0,0,1-.31.1c-.57,0-1.62-.71-3.14-2.13-1.28-1.38-1.91-2.46-1.91-3.24.43-2,.8-3.63,1.11-4.78A.92.92,0,0,1,105.38,23.47Z"/>
      <path class="a" d="M128.61,26.92q1.26,0,3,3.15a12.57,12.57,0,0,1,1.42,5.31,8.92,8.92,0,0,1-1.17,3.73A150.92,150.92,0,0,1,122,57.89q-5.37,8.27-7.78,8.27c-.55,0-1.52-.57-2.9-1.7-1.46-1.46-2.19-2.67-2.19-3.64q2.74-14.16,5.52-26a1.11,1.11,0,0,1,.71-.28q1.51,0,3.86,3.12a5.21,5.21,0,0,1,1.11,2.43l-.68,2.19q-1.75,6.12-3.88,16.63v.06h.12a17.41,17.41,0,0,0,2.22-2.65,55.77,55.77,0,0,0,6.82-14,44.48,44.48,0,0,0,1.51-5.59,45.53,45.53,0,0,0,.89-8C127.58,27.51,128,26.92,128.61,26.92Zm-12.09,14a182.4,182.4,0,0,0-4,18.56,3.08,3.08,0,0,1-.07.62A13.12,13.12,0,0,0,113,58q3.57-16.89,3.58-17v0Zm1.14,19.27a52,52,0,0,0,4.19-6.07q6.14-10.37,7-15.76s-.17.54-.46,1.57a60.48,60.48,0,0,1-3.05,7.31,97.71,97.71,0,0,1-7.5,12.71A.27.27,0,0,0,117.66,60.17Z"/>
    </g>
  </g>
</svg>
