<?xml version="1.0" encoding="utf-8"?>
<!-- Generator: Adobe Illustrator 22.0.1, SVG Export Plug-In . SVG Version: 6.00 Build 0)  -->
<svg version="1.1" baseProfile="tiny" id="Réteg_1"
	 xmlns="http://www.w3.org/2000/svg" xmlns:xlink="http://www.w3.org/1999/xlink" x="0px" y="0px" viewBox="0 0 20 20"
	 xml:space="preserve">
<path fill-rule="evenodd" fill="#7D9376" d="M4.1,1.7L3.1,0.5c-3,3.9-2.8,9.3,0.4,12.9l1.1-1.2C2,9.3,1.8,4.9,4.1,1.7L4.1,1.7z"/>
<path fill-rule="evenodd" fill="#7D9376" d="M5.7,3.4L4.6,2.2C2.6,5.1,2.7,9,5,11.8L6,10.6C4.5,8.5,4.3,5.6,5.7,3.4L5.7,3.4z"/>
<path fill-rule="evenodd" fill="#7D9376" d="M5.4,6.8c0,1.2,0.4,2.4,1.2,3.3l1.1-1.2C7.2,8.3,6.9,7.6,6.9,6.8c0-0.6,0.2-1.1,0.4-1.6
	L6.2,3.9C5.6,4.8,5.4,5.7,5.4,6.8L5.4,6.8z"/>
<path fill-rule="evenodd" fill="#7D9376" d="M15.4,12.3l1.1,1.2c3.1-3.6,3.4-9,0.4-12.9l-1.1,1.2C18.1,4.9,17.9,9.3,15.4,12.3
	L15.4,12.3z"/>
<path fill-rule="evenodd" fill="#7D9376" d="M15.3,2.2l-1.1,1.2c1.4,2.3,1.3,5.1-0.3,7.3l1.1,1.2C17.2,9,17.4,5.1,15.3,2.2L15.3,2.2
	z"/>
<path fill-rule="evenodd" fill="#7D9376" d="M14.6,6.8c0-1-0.3-2-0.8-2.9l-1.1,1.2c0.3,0.5,0.4,1,0.4,1.6c0,0.8-0.3,1.5-0.7,2.1
	l1.1,1.2C14.2,9.2,14.6,8,14.6,6.8L14.6,6.8z"/>
<path fill-rule="evenodd" fill="#737371" d="M10.7,9.2c0.8-0.3,1.4-1.1,1.4-2.1c0-1.3-1-2.3-2.3-2.3c-1.3,0-2.3,1-2.3,2.3
	c0,0.9,0.6,1.8,1.4,2.1l-3.2,8.9c-0.2,0.4-0.5,1.4,0.8,1.4l0,0H13c1.3,0,1-0.9,0.8-1.4L10.7,9.2z"/>
</svg>
