<svg xmlns="http://www.w3.org/2000/svg" xmlns:xlink="http://www.w3.org/1999/xlink" viewBox="0 0 210.46 134.92">
  <defs>
    <style>
      .a, .e {
        fill: none;
      }

      .b {
        fill: #19181c;
      }

      .c {
        fill: #7d9376;
      }

      .c, .d, .e {
        fill-rule: evenodd;
      }

      .d {
        fill: url(#a);
      }
    </style>
    <pattern id="a" data-name="USGS 17 Sandy Dry Lake" width="72" height="72" patternTransform="translate(-27.33 21)" patternUnits="userSpaceOnUse" viewBox="0 0 72 72">
      <rect class="a" width="72" height="72"/>
      <path class="b" d="M21,3a.23.23,0,0,1-.17-.07.24.24,0,0,1,0-.36.26.26,0,0,1,.35,0,.24.24,0,0,1,.07.18.23.23,0,0,1-.07.17A.22.22,0,0,1,21,3Z"/>
      <path class="b" d="M20,8.25a.31.31,0,0,1-.18-.07.27.27,0,0,1,0-.36.27.27,0,0,1,.36,0,.27.27,0,0,1,0,.36A.24.24,0,0,1,20,8.25Z"/>
      <path class="b" d="M20.25,10.5a.26.26,0,0,1-.17-.07.25.25,0,0,1-.08-.18.29.29,0,0,1,.07-.18.27.27,0,0,1,.36,0,.29.29,0,0,1,.07.18.23.23,0,0,1-.08.18A.24.24,0,0,1,20.25,10.5Z"/>
      <path class="b" d="M18,12.75a.28.28,0,0,1-.17-.07.25.25,0,0,1-.08-.18.29.29,0,0,1,.07-.18.27.27,0,0,1,.36,0,.27.27,0,0,1,0,.36A.29.29,0,0,1,18,12.75Z"/>
      <path class="b" d="M15.25,10.5a.23.23,0,0,1-.17-.07.27.27,0,0,1-.08-.18.29.29,0,0,1,.07-.18.26.26,0,0,1,.36,0,.24.24,0,0,1,.07.18.26.26,0,0,1-.25.25Z"/>
      <path class="b" d="M22.75,20a.23.23,0,0,1-.17-.07.25.25,0,0,1-.08-.18.26.26,0,0,1,.07-.17.25.25,0,0,1,.36,0,.27.27,0,0,1,.07.18.26.26,0,0,1-.07.18A.29.29,0,0,1,22.75,20Z"/>
      <path class="b" d="M15.25,23a.23.23,0,0,1-.17-.07.25.25,0,0,1-.08-.18.28.28,0,0,1,.07-.17.25.25,0,0,1,.36,0,.26.26,0,0,1,.07.18.24.24,0,0,1-.25.25Z"/>
      <path class="b" d="M14,24a.25.25,0,0,1-.18-.08.24.24,0,0,1-.07-.17.29.29,0,0,1,.07-.18.26.26,0,0,1,.36,0,.26.26,0,0,1,.07.18.24.24,0,0,1-.07.18A.29.29,0,0,1,14,24Z"/>
      <path class="b" d="M24,27a.23.23,0,0,1-.17-.07.25.25,0,0,1-.08-.18.24.24,0,0,1,.07-.17.25.25,0,0,1,.36,0,.27.27,0,0,1,.07.18A.24.24,0,0,1,24,27Z"/>
      <path class="b" d="M30.75,25.75a.23.23,0,0,1-.17-.07.24.24,0,0,1,0-.36.26.26,0,0,1,.35,0,.27.27,0,0,1,0,.36A.24.24,0,0,1,30.75,25.75Z"/>
      <path class="b" d="M31.25,23.25a.28.28,0,0,1-.17-.07A.25.25,0,0,1,31,23a.26.26,0,0,1,.07-.17.25.25,0,0,1,.36,0,.27.27,0,0,1,.07.18.24.24,0,0,1-.07.18A.29.29,0,0,1,31.25,23.25Z"/>
      <path class="b" d="M29.25,18.25a.23.23,0,0,1-.17-.07.24.24,0,0,1,0-.36.26.26,0,0,1,.35,0,.24.24,0,0,1,.07.18.29.29,0,0,1-.07.18A.26.26,0,0,1,29.25,18.25Z"/>
      <path class="b" d="M32.25,18.25a.23.23,0,0,1-.17-.07A.25.25,0,0,1,32,18a.29.29,0,0,1,.07-.18.27.27,0,0,1,.36,0,.27.27,0,0,1,0,.36A.24.24,0,0,1,32.25,18.25Z"/>
      <path class="b" d="M32.5,13.75a.26.26,0,0,1-.17-.07.24.24,0,0,1,0-.36.26.26,0,0,1,.35,0,.26.26,0,0,1,.07.18.23.23,0,0,1-.07.17A.25.25,0,0,1,32.5,13.75Z"/>
      <path class="b" d="M31.75,11.75a.23.23,0,0,1-.17-.07.24.24,0,0,1,0-.36.26.26,0,0,1,.35,0,.24.24,0,0,1,.07.18.29.29,0,0,1-.07.18A.24.24,0,0,1,31.75,11.75Z"/>
      <path class="b" d="M29.25,10.75A.24.24,0,0,1,29,10.5a.25.25,0,0,1,.08-.18.26.26,0,0,1,.35,0,.27.27,0,0,1,0,.36A.29.29,0,0,1,29.25,10.75Z"/>
      <path class="b" d="M32.25,7a.23.23,0,0,1-.17-.07A.25.25,0,0,1,32,6.75a.29.29,0,0,1,.07-.18.27.27,0,0,1,.36,0,.24.24,0,0,1,.07.18.29.29,0,0,1-.07.18A.24.24,0,0,1,32.25,7Z"/>
      <path class="b" d="M32,3a.28.28,0,0,1-.17-.07.24.24,0,0,1,0-.36.26.26,0,0,1,.35,0,.27.27,0,0,1,0,.36A.29.29,0,0,1,32,3Z"/>
      <path class="b" d="M29.25,3.25a.23.23,0,0,1-.17-.07.24.24,0,0,1,0-.36.26.26,0,0,1,.35,0A.24.24,0,0,1,29.5,3a.26.26,0,0,1-.25.25Z"/>
      <path class="b" d="M34,1.25a.26.26,0,0,1-.17-.07A.25.25,0,0,1,33.75,1a.23.23,0,0,1,.08-.18.26.26,0,0,1,.35,0,.24.24,0,0,1,.07.18.23.23,0,0,1-.07.17A.25.25,0,0,1,34,1.25Z"/>
      <path class="b" d="M41.5,7a.26.26,0,0,1-.17-.07.24.24,0,0,1,0-.36.25.25,0,0,1,.34,0,.24.24,0,0,1,.08.18.23.23,0,0,1-.07.17A.22.22,0,0,1,41.5,7Z"/>
      <path class="b" d="M45.5,6.75a.23.23,0,0,1-.17-.07.24.24,0,0,1,0-.36.26.26,0,0,1,.35,0,.25.25,0,0,1-.18.43Z"/>
      <path class="b" d="M40.25,10.25a.23.23,0,0,1-.17-.07A.27.27,0,0,1,40,10a.29.29,0,0,1,.07-.18.27.27,0,0,1,.36,0,.24.24,0,0,1,.07.18.26.26,0,0,1-.25.25Z"/>
      <path class="b" d="M45,11.75a.23.23,0,0,1-.17-.07.24.24,0,0,1,0-.36.26.26,0,0,1,.35,0,.29.29,0,0,1,.07.18.24.24,0,0,1-.25.25Z"/>
      <path class="b" d="M45,13.5a.23.23,0,0,1-.17-.07.25.25,0,1,1,.35-.35.21.21,0,0,1,.07.17.24.24,0,0,1-.25.25Z"/>
      <path class="b" d="M47,14.25a.23.23,0,0,1-.17-.07.24.24,0,0,1,0-.36.26.26,0,0,1,.35,0,.27.27,0,0,1,0,.36A.24.24,0,0,1,47,14.25Z"/>
      <path class="b" d="M47,16.25a.26.26,0,0,1-.17-.07.24.24,0,0,1,0-.36.26.26,0,0,1,.35,0,.22.22,0,0,1,.07.17.26.26,0,0,1-.07.18A.29.29,0,0,1,47,16.25Z"/>
      <path class="b" d="M47.25,22.75a.26.26,0,0,1-.17-.07A.23.23,0,0,1,47,22.5a.25.25,0,0,1,.08-.18.27.27,0,0,1,.35,0,.24.24,0,0,1,.07.18.29.29,0,0,1-.07.18A.24.24,0,0,1,47.25,22.75Z"/>
      <path class="b" d="M39,20.75a.23.23,0,0,1-.17-.07.24.24,0,0,1,0-.36.26.26,0,0,1,.35,0,.27.27,0,0,1,0,.36A.24.24,0,0,1,39,20.75Z"/>
      <path class="b" d="M50.25,13.5a.26.26,0,0,1-.17-.07.24.24,0,0,1,0-.36.26.26,0,0,1,.35,0,.27.27,0,0,1,0,.36A.29.29,0,0,1,50.25,13.5Z"/>
      <path class="b" d="M52.25,12a.23.23,0,0,1-.17-.07.24.24,0,0,1,0-.36.26.26,0,0,1,.35,0,.27.27,0,0,1,0,.36A.24.24,0,0,1,52.25,12Z"/>
      <path class="b" d="M54.75,11a.26.26,0,0,1-.17-.07.27.27,0,0,1-.08-.18.25.25,0,0,1,.08-.18.26.26,0,0,1,.35,0,.24.24,0,0,1,.07.18.26.26,0,0,1-.07.18A.29.29,0,0,1,54.75,11Z"/>
      <path class="b" d="M54.75,6.75a.24.24,0,0,1-.17-.07.29.29,0,0,1-.08-.18.28.28,0,0,1,.07-.17.26.26,0,0,1,.36,0A.27.27,0,0,1,55,6.5a.23.23,0,0,1-.07.17A.25.25,0,0,1,54.75,6.75Z"/>
      <path class="b" d="M56.5.75a.26.26,0,0,1-.17-.07A.27.27,0,0,1,56.25.5a.31.31,0,0,1,.07-.18.27.27,0,0,1,.36,0,.27.27,0,0,1,.07.18.23.23,0,0,1-.07.17A.25.25,0,0,1,56.5.75Z"/>
      <path class="b" d="M64,6.5a.26.26,0,0,1-.17-.07.27.27,0,0,1-.08-.18.26.26,0,0,1,.43-.18.27.27,0,0,1,.07.18.23.23,0,0,1-.07.17A.25.25,0,0,1,64,6.5Z"/>
      <path class="b" d="M65,2.5a.26.26,0,0,1-.17-.07.24.24,0,0,1,0-.36.26.26,0,0,1,.35,0,.24.24,0,0,1,.07.18.21.21,0,0,1-.07.17A.22.22,0,0,1,65,2.5Z"/>
      <path class="b" d="M68,3a.26.26,0,0,1-.17-.07.25.25,0,0,1-.08-.18.29.29,0,0,1,.07-.18.27.27,0,0,1,.36,0,.27.27,0,0,1,0,.36A.29.29,0,0,1,68,3Z"/>
      <path class="b" d="M68,10.25a.26.26,0,0,1-.17-.07.25.25,0,0,1-.08-.18.29.29,0,0,1,.07-.18.27.27,0,0,1,.36,0,.27.27,0,0,1,0,.36A.29.29,0,0,1,68,10.25Z"/>
      <path class="b" d="M64.25,12.25a.26.26,0,0,1-.17-.07A.27.27,0,0,1,64,12a.26.26,0,0,1,.07-.17.25.25,0,0,1,.35,0,.23.23,0,0,1,.08.18.26.26,0,0,1-.25.25Z"/>
      <path class="b" d="M65.25,15.75a.24.24,0,0,1-.17-.07.24.24,0,0,1,0-.36.26.26,0,0,1,.35,0,.22.22,0,0,1,.07.17.26.26,0,0,1-.25.25Z"/>
      <path class="b" d="M64,19.75a.26.26,0,0,1-.17-.07.24.24,0,0,1,0-.36.26.26,0,0,1,.35,0,.27.27,0,0,1,0,.36A.29.29,0,0,1,64,19.75Z"/>
      <path class="b" d="M66.25,19.75a.25.25,0,0,1-.18-.08A.24.24,0,0,1,66,19.5a.26.26,0,0,1,.43-.18.26.26,0,0,1,.07.18.24.24,0,0,1-.07.18A.29.29,0,0,1,66.25,19.75Z"/>
      <path class="b" d="M68,21.25a.26.26,0,0,1-.17-.07.27.27,0,0,1-.08-.18.28.28,0,0,1,.07-.17.26.26,0,0,1,.36,0,.27.27,0,0,1,.07.18.23.23,0,0,1-.07.17A.25.25,0,0,1,68,21.25Z"/>
      <path class="b" d="M69.25,20.25a.23.23,0,0,1-.17-.07.24.24,0,0,1,0-.36.26.26,0,0,1,.35,0,.25.25,0,0,1-.18.43Z"/>
      <path class="b" d="M69.5,18a.23.23,0,0,1-.17-.07.24.24,0,0,1,0-.36.26.26,0,0,1,.35,0,.25.25,0,0,1-.18.43Z"/>
      <path class="b" d="M71.25,17.5a.26.26,0,0,1-.17-.07.27.27,0,0,1-.08-.18.28.28,0,0,1,.07-.17.26.26,0,0,1,.36,0,.27.27,0,0,1,.07.18.23.23,0,0,1-.07.17A.25.25,0,0,1,71.25,17.5Z"/>
      <path class="b" d="M8,47a.31.31,0,0,1-.18-.07.34.34,0,0,1-.07-.18.29.29,0,0,1,.07-.18.27.27,0,0,1,.36,0,.24.24,0,0,1,.07.18A.26.26,0,0,1,8,47Z"/>
      <path class="b" d="M7,52.25a.23.23,0,0,1-.17-.07A.25.25,0,0,1,6.75,52a.29.29,0,0,1,.07-.18.27.27,0,0,1,.36,0,.26.26,0,0,1,.07.18.24.24,0,0,1-.25.25Z"/>
      <path class="b" d="M7.25,54.5a.26.26,0,0,1-.17-.07A.25.25,0,0,1,7,54.25a.31.31,0,0,1,.07-.18.27.27,0,0,1,.36,0,.25.25,0,0,1-.18.43Z"/>
      <path class="b" d="M5,56.75a.26.26,0,0,1-.17-.07.25.25,0,0,1-.08-.18.24.24,0,0,1,.07-.17.26.26,0,0,1,.36,0,.24.24,0,0,1,.07.18.29.29,0,0,1-.07.18A.26.26,0,0,1,5,56.75Z"/>
      <path class="b" d="M2.25,54.5a.23.23,0,0,1-.17-.07A.25.25,0,0,1,2,54.25a.26.26,0,0,1,.07-.17.25.25,0,0,1,.43.17.26.26,0,0,1-.07.18A.27.27,0,0,1,2.25,54.5Z"/>
      <path class="b" d="M9.75,64a.23.23,0,0,1-.17-.07.25.25,0,0,1-.08-.18.29.29,0,0,1,.07-.18.27.27,0,0,1,.36,0,.25.25,0,0,1-.18.43Z"/>
      <path class="b" d="M2.25,67a.28.28,0,0,1-.17-.07A.25.25,0,0,1,2,66.75a.29.29,0,0,1,.07-.18.27.27,0,0,1,.36,0,.24.24,0,0,1,.07.18.26.26,0,0,1-.07.18A.27.27,0,0,1,2.25,67Z"/>
      <path class="b" d="M1,68a.31.31,0,0,1-.18-.07.29.29,0,0,1-.07-.18.31.31,0,0,1,.07-.18.27.27,0,0,1,.36,0,.27.27,0,0,1,0,.36A.29.29,0,0,1,1,68Z"/>
      <path class="b" d="M11,71a.23.23,0,0,1-.17-.07.25.25,0,0,1-.08-.18.29.29,0,0,1,.07-.18.27.27,0,0,1,.36,0A.25.25,0,0,1,11,71Z"/>
      <path class="b" d="M17.75,69.75a.23.23,0,0,1-.17-.07.25.25,0,0,1-.08-.18.29.29,0,0,1,.07-.18.27.27,0,0,1,.36,0,.24.24,0,0,1,.07.18.29.29,0,0,1-.07.18A.26.26,0,0,1,17.75,69.75Z"/>
      <path class="b" d="M18.25,67.25a.28.28,0,0,1-.17-.07.25.25,0,0,1,0-.36.27.27,0,0,1,.36,0,.24.24,0,0,1,.07.18.22.22,0,0,1-.07.17A.25.25,0,0,1,18.25,67.25Z"/>
      <path class="b" d="M16.25,62.25a.25.25,0,0,1-.18-.08A.24.24,0,0,1,16,62a.29.29,0,0,1,.07-.18.27.27,0,0,1,.36,0,.27.27,0,0,1,0,.36A.29.29,0,0,1,16.25,62.25Z"/>
      <path class="b" d="M19.25,62.25a.26.26,0,0,1-.17-.07A.25.25,0,0,1,19,62a.29.29,0,0,1,.07-.18.27.27,0,0,1,.36,0,.27.27,0,0,1,.07.18.23.23,0,0,1-.08.18A.24.24,0,0,1,19.25,62.25Z"/>
      <path class="b" d="M19.5,57.75a.23.23,0,0,1-.17-.07.25.25,0,0,1-.08-.18.26.26,0,0,1,.07-.17.25.25,0,0,1,.36,0,.27.27,0,0,1,.07.18.26.26,0,0,1-.07.18A.24.24,0,0,1,19.5,57.75Z"/>
      <path class="b" d="M18.75,55.75a.23.23,0,0,1-.17-.07.24.24,0,0,1,0-.36.26.26,0,0,1,.35,0,.26.26,0,0,1,.07.18.23.23,0,0,1-.07.17A.25.25,0,0,1,18.75,55.75Z"/>
      <path class="b" d="M16.25,54.75a.31.31,0,0,1-.18-.07A.29.29,0,0,1,16,54.5a.28.28,0,0,1,.07-.17.26.26,0,0,1,.36,0,.26.26,0,0,1,.07.18.24.24,0,0,1-.25.25Z"/>
      <path class="b" d="M19.25,51a.26.26,0,0,1-.17-.07.27.27,0,0,1-.08-.18.29.29,0,0,1,.07-.18.27.27,0,0,1,.36,0,.27.27,0,0,1,.07.18.24.24,0,0,1-.07.18A.29.29,0,0,1,19.25,51Z"/>
      <path class="b" d="M19,47a.26.26,0,0,1-.17-.07.27.27,0,0,1-.08-.18.29.29,0,0,1,.07-.18.27.27,0,0,1,.36,0,.29.29,0,0,1,.07.18A.26.26,0,0,1,19,47Z"/>
      <path class="b" d="M16.25,47.25a.29.29,0,0,1-.18-.07A.31.31,0,0,1,16,47a.29.29,0,0,1,.07-.18.27.27,0,0,1,.36,0,.24.24,0,0,1,.07.18.26.26,0,0,1-.07.18A.24.24,0,0,1,16.25,47.25Z"/>
      <path class="b" d="M21,45.25a.23.23,0,0,1-.17-.07.24.24,0,0,1,0-.36.26.26,0,0,1,.35,0,.26.26,0,0,1,.07.18.23.23,0,0,1-.07.17A.22.22,0,0,1,21,45.25Z"/>
      <path class="b" d="M28.5,51a.26.26,0,0,1-.17-.07.24.24,0,0,1,0-.36.26.26,0,0,1,.35,0,.27.27,0,0,1,.07.18.26.26,0,0,1-.07.18A.29.29,0,0,1,28.5,51Z"/>
      <path class="b" d="M32.5,50.75a.26.26,0,0,1-.17-.07.24.24,0,0,1,0-.36.26.26,0,0,1,.35,0,.27.27,0,0,1,0,.36A.29.29,0,0,1,32.5,50.75Z"/>
      <path class="b" d="M27.25,54.25a.25.25,0,0,1-.18-.08A.24.24,0,0,1,27,54a.23.23,0,0,1,.08-.18.26.26,0,0,1,.35,0,.24.24,0,0,1,.07.18.26.26,0,0,1-.07.18A.27.27,0,0,1,27.25,54.25Z"/>
      <path class="b" d="M32,55.75a.28.28,0,0,1-.17-.07.25.25,0,0,1-.08-.18.26.26,0,0,1,.07-.17.25.25,0,0,1,.36,0,.27.27,0,0,1,.07.18.24.24,0,0,1-.07.18A.29.29,0,0,1,32,55.75Z"/>
      <path class="b" d="M32,57.5a.23.23,0,0,1-.17-.07.25.25,0,0,1-.08-.18.26.26,0,0,1,.07-.17.25.25,0,0,1,.36,0,.27.27,0,0,1,.07.18.26.26,0,0,1-.07.18A.24.24,0,0,1,32,57.5Z"/>
      <path class="b" d="M34,58.25a.25.25,0,0,1-.18-.08.24.24,0,0,1-.07-.17.23.23,0,0,1,.08-.18.26.26,0,0,1,.35,0,.24.24,0,0,1,.07.18.26.26,0,0,1-.07.18A.27.27,0,0,1,34,58.25Z"/>
      <path class="b" d="M34,60.25a.23.23,0,0,1-.17-.07.24.24,0,0,1,0-.36.26.26,0,0,1,.35,0,.27.27,0,0,1,.07.18.26.26,0,0,1-.07.18A.29.29,0,0,1,34,60.25Z"/>
      <path class="b" d="M34.25,66.75a.26.26,0,0,1-.17-.07.24.24,0,0,1,0-.36.26.26,0,0,1,.35,0,.27.27,0,0,1,0,.36A.29.29,0,0,1,34.25,66.75Z"/>
      <path class="b" d="M26,64.75a.23.23,0,0,1-.17-.07.25.25,0,1,1,.35-.35.22.22,0,0,1,.07.17.24.24,0,0,1-.25.25Z"/>
      <path class="b" d="M37.25,57.5a.26.26,0,0,1-.17-.07.24.24,0,0,1,0-.36.25.25,0,0,1,.34,0,.23.23,0,0,1,.08.18.23.23,0,0,1-.07.17A.22.22,0,0,1,37.25,57.5Z"/>
      <path class="b" d="M39.25,56a.26.26,0,0,1-.17-.07.24.24,0,0,1,0-.36.26.26,0,0,1,.35,0,.26.26,0,0,1,.07.18.23.23,0,0,1-.07.17A.22.22,0,0,1,39.25,56Z"/>
      <path class="b" d="M41.75,55a.26.26,0,0,1-.17-.07.25.25,0,0,1-.08-.18.23.23,0,0,1,.08-.18.26.26,0,0,1,.35,0,.24.24,0,0,1,.07.18.23.23,0,0,1-.07.17A.25.25,0,0,1,41.75,55Z"/>
      <path class="b" d="M41.75,50.75a.23.23,0,0,1-.17-.07.24.24,0,0,1,0-.36.26.26,0,0,1,.35,0,.24.24,0,0,1,.07.18.26.26,0,0,1-.07.18A.29.29,0,0,1,41.75,50.75Z"/>
      <path class="b" d="M43.5,44.75a.28.28,0,0,1-.17-.07.24.24,0,0,1,0-.36.26.26,0,0,1,.35,0,.25.25,0,0,1-.18.43Z"/>
      <path class="b" d="M51,50.5a.28.28,0,0,1-.17-.07.24.24,0,0,1,0-.36.26.26,0,0,1,.35,0,.25.25,0,0,1-.18.43Z"/>
      <path class="b" d="M52,46.5a.26.26,0,0,1-.17-.07.24.24,0,0,1,0-.36.26.26,0,0,1,.35,0,.27.27,0,0,1,.07.18.23.23,0,0,1-.07.17A.22.22,0,0,1,52,46.5Z"/>
      <path class="b" d="M55,47a.23.23,0,0,1-.17-.07.24.24,0,0,1,0-.36.26.26,0,0,1,.35,0,.27.27,0,0,1,0,.36A.24.24,0,0,1,55,47Z"/>
      <path class="b" d="M55,54.25a.28.28,0,0,1-.17-.07.24.24,0,0,1,0-.36.26.26,0,0,1,.35,0,.27.27,0,0,1,0,.36A.24.24,0,0,1,55,54.25Z"/>
      <path class="b" d="M51.25,56.25a.26.26,0,0,1-.17-.07.24.24,0,0,1,0-.36.26.26,0,0,1,.35,0,.27.27,0,0,1,0,.36A.29.29,0,0,1,51.25,56.25Z"/>
      <path class="b" d="M52.25,59.75a.23.23,0,0,1-.17-.07.24.24,0,0,1,0-.36.26.26,0,0,1,.35,0,.27.27,0,0,1,.07.18.23.23,0,0,1-.07.17A.22.22,0,0,1,52.25,59.75Z"/>
      <path class="b" d="M51,63.75a.26.26,0,0,1-.17-.07.24.24,0,0,1,0-.36.26.26,0,0,1,.35,0,.26.26,0,0,1,.07.18.26.26,0,0,1-.25.25Z"/>
      <path class="b" d="M53.25,63.75a.26.26,0,0,1-.17-.07A.27.27,0,0,1,53,63.5a.26.26,0,0,1,.43-.18.27.27,0,0,1,.07.18.23.23,0,0,1-.07.17A.25.25,0,0,1,53.25,63.75Z"/>
      <path class="b" d="M55,65.25a.28.28,0,0,1-.17-.07.24.24,0,0,1,0-.36.26.26,0,0,1,.35,0,.27.27,0,0,1,0,.36A.24.24,0,0,1,55,65.25Z"/>
      <path class="b" d="M56.25,64.25a.28.28,0,0,1-.17-.07.24.24,0,0,1,0-.36.26.26,0,0,1,.35,0,.26.26,0,0,1,.07.18.24.24,0,0,1-.25.25Z"/>
      <path class="b" d="M56.5,62a.26.26,0,0,1-.17-.07.29.29,0,0,1-.08-.18.25.25,0,0,1,.08-.18.26.26,0,0,1,.35,0,.22.22,0,0,1,.07.17.23.23,0,0,1-.07.17A.25.25,0,0,1,56.5,62Z"/>
      <path class="b" d="M58.25,61.5a.26.26,0,0,1-.17-.07.27.27,0,0,1-.08-.18.26.26,0,0,1,.43-.18.27.27,0,0,1,.07.18.26.26,0,0,1-.25.25Z"/>
      <path class="b" d="M21,27a.23.23,0,0,1-.17-.07.24.24,0,0,1,0-.36.26.26,0,0,1,.35,0A.25.25,0,0,1,21,27Z"/>
      <path class="b" d="M22.75,24a.24.24,0,0,1-.25-.25.25.25,0,0,1,.08-.18.26.26,0,0,1,.35,0,.27.27,0,0,1,0,.36A.27.27,0,0,1,22.75,24Z"/>
      <path class="b" d="M25.25,24.5a.28.28,0,0,1-.17-.07.24.24,0,0,1,0-.36.26.26,0,0,1,.35,0,.27.27,0,0,1,0,.36A.29.29,0,0,1,25.25,24.5Z"/>
      <path class="b" d="M35.25,23.25a.23.23,0,0,1-.17-.07.24.24,0,0,1,0-.36.26.26,0,0,1,.35,0,.24.24,0,0,1,.07.18.29.29,0,0,1-.07.18A.24.24,0,0,1,35.25,23.25Z"/>
      <path class="b" d="M39,24.75a.23.23,0,0,1-.17-.07.24.24,0,0,1,0-.36.26.26,0,0,1,.35,0,.24.24,0,0,1,.07.18.29.29,0,0,1-.07.18A.26.26,0,0,1,39,24.75Z"/>
      <path class="b" d="M45,29.5a.23.23,0,0,1-.17-.07.24.24,0,0,1,0-.36.26.26,0,0,1,.35,0,.27.27,0,0,1,0,.36A.26.26,0,0,1,45,29.5Z"/>
      <path class="b" d="M46.25,29a.26.26,0,0,1-.17-.07.24.24,0,0,1,0-.36.25.25,0,0,1,.34,0,.24.24,0,0,1,.08.18.23.23,0,0,1-.07.17A.22.22,0,0,1,46.25,29Z"/>
      <path class="b" d="M55.25,28a.26.26,0,0,1-.17-.07.24.24,0,0,1,0-.36.26.26,0,0,1,.35,0,.27.27,0,0,1,0,.36A.29.29,0,0,1,55.25,28Z"/>
      <path class="b" d="M51.25,25.25a.23.23,0,0,1-.17-.07.24.24,0,0,1,0-.36.26.26,0,0,1,.35,0,.24.24,0,0,1,.07.18.29.29,0,0,1-.07.18A.24.24,0,0,1,51.25,25.25Z"/>
      <path class="b" d="M52,29.5a.26.26,0,0,1-.17-.07.24.24,0,0,1,0-.36.26.26,0,0,1,.35,0,.27.27,0,0,1,.07.18.23.23,0,0,1-.07.17A.22.22,0,0,1,52,29.5Z"/>
      <path class="b" d="M62.5,35.5a.26.26,0,0,1-.17-.07.24.24,0,0,1,0-.36.26.26,0,0,1,.34,0,.23.23,0,0,1,.08.18.24.24,0,0,1-.25.25Z"/>
      <path class="b" d="M58.25,38.25a.24.24,0,0,1-.17-.07A.27.27,0,0,1,58,38a.26.26,0,0,1,.43-.18.27.27,0,0,1,.07.18.26.26,0,0,1-.25.25Z"/>
      <path class="b" d="M49,39a.24.24,0,0,1-.17-.07.27.27,0,0,1-.08-.18.26.26,0,0,1,.43-.18.27.27,0,0,1,.07.18.23.23,0,0,1-.07.17A.25.25,0,0,1,49,39Z"/>
      <path class="b" d="M48,41.25a.23.23,0,0,1-.17-.07.24.24,0,0,1,0-.36.25.25,0,0,1,.34,0,.23.23,0,0,1,.08.18.23.23,0,0,1-.07.17A.23.23,0,0,1,48,41.25Z"/>
      <path class="b" d="M52,43a.25.25,0,0,1-.18-.08.24.24,0,0,1-.07-.17.25.25,0,0,1,.08-.18.26.26,0,0,1,.35,0,.27.27,0,0,1,0,.36A.29.29,0,0,1,52,43Z"/>
      <path class="b" d="M53.5,45a.26.26,0,0,1-.17-.07.24.24,0,0,1,0-.36.26.26,0,0,1,.35,0,.27.27,0,0,1,0,.36A.29.29,0,0,1,53.5,45Z"/>
      <path class="b" d="M62.25,48a.26.26,0,0,1-.17-.07.27.27,0,0,1-.08-.18.26.26,0,0,1,.43-.18.27.27,0,0,1,.07.18.23.23,0,0,1-.07.17A.25.25,0,0,1,62.25,48Z"/>
      <path class="b" d="M65,51.75a.28.28,0,0,1-.17-.07.25.25,0,0,1-.08-.18.23.23,0,0,1,.08-.18.27.27,0,0,1,.35,0,.29.29,0,0,1,.07.18.24.24,0,0,1-.25.25Z"/>
      <path class="b" d="M67,51.75a.26.26,0,0,1-.17-.07.24.24,0,0,1,0-.36.27.27,0,0,1,.35,0,.25.25,0,0,1-.18.43Z"/>
      <path class="b" d="M69.5,45a.28.28,0,0,1-.17-.07.24.24,0,0,1,0-.36.26.26,0,0,1,.35,0,.25.25,0,0,1-.18.43Z"/>
      <path class="b" d="M60,39a.23.23,0,0,1-.17-.07.24.24,0,0,1,0-.36.26.26,0,0,1,.35,0,.27.27,0,0,1,0,.36A.24.24,0,0,1,60,39Z"/>
      <path class="b" d="M47.25,47.75a.26.26,0,0,1-.17-.07A.25.25,0,0,1,47,47.5a.23.23,0,0,1,.08-.18.27.27,0,0,1,.35,0,.29.29,0,0,1,.07.18.24.24,0,0,1-.25.25Z"/>
      <path class="b" d="M32.5,47a.28.28,0,0,1-.17-.07.24.24,0,0,1,0-.36.26.26,0,0,1,.35,0,.27.27,0,0,1,0,.36A.29.29,0,0,1,32.5,47Z"/>
      <path class="b" d="M37,44.5a.28.28,0,0,1-.17-.07.27.27,0,0,1-.08-.18.24.24,0,0,1,.07-.17.25.25,0,0,1,.36,0,.26.26,0,0,1,.07.18.22.22,0,0,1-.07.17A.25.25,0,0,1,37,44.5Z"/>
      <path class="b" d="M26.25,37.75a.28.28,0,0,1-.17-.07.24.24,0,0,1,0-.36.26.26,0,0,1,.35,0,.27.27,0,0,1,0,.36A.29.29,0,0,1,26.25,37.75Z"/>
      <path class="b" d="M29.75,35.5a.23.23,0,0,1-.17-.07.24.24,0,0,1,0-.36.26.26,0,0,1,.35,0,.26.26,0,0,1,.07.18.23.23,0,0,1-.07.17A.22.22,0,0,1,29.75,35.5Z"/>
      <path class="b" d="M17,28.5a.23.23,0,0,1-.17-.07.25.25,0,0,1-.08-.18.28.28,0,0,1,.07-.17.25.25,0,0,1,.36,0,.26.26,0,0,1,.07.18.24.24,0,0,1-.25.25Z"/>
      <path class="b" d="M10.5,29.5a.23.23,0,0,1-.17-.07.25.25,0,0,1-.08-.18.28.28,0,0,1,.07-.17.25.25,0,0,1,.36,0,.27.27,0,0,1,.07.18.26.26,0,0,1-.07.18A.24.24,0,0,1,10.5,29.5Z"/>
      <path class="b" d="M6,31.5a.23.23,0,0,1-.17-.07.25.25,0,0,1-.08-.18.28.28,0,0,1,.07-.17.25.25,0,0,1,.36,0,.27.27,0,0,1,.07.18A.24.24,0,0,1,6,31.5Z"/>
      <path class="b" d="M2.5,35.25a.24.24,0,0,1-.17-.07A.27.27,0,0,1,2.25,35a.25.25,0,0,1,.08-.18.25.25,0,0,1,.34,0,.25.25,0,0,1-.17.43Z"/>
      <path class="b" d="M11.25,36.75a.29.29,0,0,1-.18-.07A.31.31,0,0,1,11,36.5a.29.29,0,0,1,.07-.18.27.27,0,0,1,.36,0,.25.25,0,0,1-.18.43Z"/>
      <path class="b" d="M17,42a.23.23,0,0,1-.17-.07.25.25,0,0,1-.08-.18.31.31,0,0,1,.07-.18.27.27,0,0,1,.36,0,.24.24,0,0,1,.07.18.29.29,0,0,1-.07.18A.24.24,0,0,1,17,42Z"/>
      <path class="b" d="M12.75,36a.26.26,0,0,1-.17-.07.25.25,0,0,1-.08-.18.26.26,0,0,1,.43-.18.27.27,0,0,1,0,.36A.26.26,0,0,1,12.75,36Z"/>
      <path class="b" d="M26.5,30.25a.23.23,0,0,1-.17-.07.24.24,0,0,1,0-.36.26.26,0,0,1,.35,0,.27.27,0,0,1,0,.36A.24.24,0,0,1,26.5,30.25Z"/>
      <path class="b" d="M37.75,31a.23.23,0,0,1-.17-.07.24.24,0,0,1,0-.36.26.26,0,0,1,.35,0,.27.27,0,0,1,0,.36A.26.26,0,0,1,37.75,31Z"/>
      <path class="b" d="M39.5,32.5a.23.23,0,0,1-.17-.07.25.25,0,1,1,.35-.35.22.22,0,0,1,.07.17.26.26,0,0,1-.07.18A.29.29,0,0,1,39.5,32.5Z"/>
      <path class="b" d="M28,42a.28.28,0,0,1-.17-.07.27.27,0,0,1-.08-.18.28.28,0,0,1,.07-.17.25.25,0,0,1,.35,0,.24.24,0,0,1,.08.18A.26.26,0,0,1,28,42Z"/>
      <path class="b" d="M6.5,20.5a.26.26,0,0,1-.17-.07.27.27,0,0,1-.08-.18.29.29,0,0,1,.07-.18.27.27,0,0,1,.36,0,.24.24,0,0,1,.07.18.26.26,0,0,1-.25.25Z"/>
      <path class="b" d="M10.25,20.25a.26.26,0,0,1-.17-.07A.25.25,0,0,1,10,20a.29.29,0,0,1,.07-.18.27.27,0,0,1,.36,0,.25.25,0,0,1-.18.43Z"/>
      <path class="b" d="M11.75,23.5a.23.23,0,0,1-.17-.07.25.25,0,0,1-.08-.18.28.28,0,0,1,.07-.17.25.25,0,0,1,.36,0,.27.27,0,0,1,.07.18.24.24,0,0,1-.25.25Z"/>
      <path class="b" d="M3,25.75a.26.26,0,0,1-.17-.07.25.25,0,0,1-.08-.18.29.29,0,0,1,.07-.18.27.27,0,0,1,.36,0,.27.27,0,0,1,0,.36A.26.26,0,0,1,3,25.75Z"/>
      <path class="b" d="M64.25,29.5a.26.26,0,0,1-.17-.07.27.27,0,0,1-.08-.18.26.26,0,0,1,.07-.17.25.25,0,0,1,.35,0,.23.23,0,0,1,.08.18.26.26,0,0,1-.25.25Z"/>
      <path class="b" d="M67.5,30.75a.26.26,0,0,1-.17-.07.25.25,0,0,1-.08-.18.26.26,0,0,1,.43-.18.27.27,0,0,1,.07.18.26.26,0,0,1-.07.18A.29.29,0,0,1,67.5,30.75Z"/>
      <path class="b" d="M69.5,29.75a.26.26,0,0,1-.17-.07.24.24,0,0,1,0-.36.26.26,0,0,1,.35,0,.27.27,0,0,1,0,.36A.29.29,0,0,1,69.5,29.75Z"/>
      <path class="b" d="M7.25,15.75a.25.25,0,0,1-.18-.08A.24.24,0,0,1,7,15.5a.29.29,0,0,1,.07-.18.27.27,0,0,1,.36,0,.25.25,0,0,1-.18.43Z"/>
      <path class="b" d="M1.5,9a.31.31,0,0,1-.18-.07.27.27,0,0,1,0-.36.27.27,0,0,1,.36,0,.27.27,0,0,1,0,.36A.29.29,0,0,1,1.5,9Z"/>
      <path class="b" d="M14.5,6.5a.23.23,0,0,1-.17-.07.25.25,0,0,1-.08-.18.26.26,0,0,1,.07-.17.25.25,0,0,1,.36,0,.25.25,0,0,1-.18.43Z"/>
      <path class="b" d="M8.5,5.25a.23.23,0,0,1-.17-.07A.25.25,0,0,1,8.25,5a.29.29,0,0,1,.07-.18.26.26,0,0,1,.36,0A.21.21,0,0,1,8.75,5a.26.26,0,0,1-.07.18A.24.24,0,0,1,8.5,5.25Z"/>
      <path class="b" d="M3.5,2.5a.25.25,0,0,1-.18-.08.24.24,0,0,1-.07-.17.25.25,0,0,1,.08-.18.26.26,0,0,1,.35,0,.27.27,0,0,1,0,.36A.29.29,0,0,1,3.5,2.5Z"/>
      <path class="b" d="M3.75,6a.26.26,0,0,1-.17-.07.25.25,0,0,1-.08-.18.31.31,0,0,1,.07-.18.27.27,0,0,1,.36,0,.27.27,0,0,1,0,.36A.26.26,0,0,1,3.75,6Z"/>
      <path class="b" d="M12.75,14.25a.26.26,0,0,1-.17-.07A.27.27,0,0,1,12.5,14a.29.29,0,0,1,.07-.18.27.27,0,0,1,.36,0A.24.24,0,0,1,13,14a.26.26,0,0,1-.25.25Z"/>
      <path class="b" d="M18.5,19.25a.23.23,0,0,1-.17-.07.25.25,0,0,1-.08-.18.26.26,0,0,1,.07-.17.25.25,0,0,1,.36,0,.27.27,0,0,1,.07.18.24.24,0,0,1-.07.18A.29.29,0,0,1,18.5,19.25Z"/>
      <path class="b" d="M21.25,37a.23.23,0,0,1-.17-.07.27.27,0,0,1-.08-.18.29.29,0,0,1,.07-.18.27.27,0,0,1,.36,0,.24.24,0,0,1,.07.18.26.26,0,0,1-.25.25Z"/>
      <path class="b" d="M.75,44.25a.26.26,0,0,1-.17-.07.24.24,0,0,1,0-.36.26.26,0,0,1,.35,0A.24.24,0,0,1,1,44a.29.29,0,0,1-.07.18A.29.29,0,0,1,.75,44.25Z"/>
      <path class="b" d="M66.5,37.25a.26.26,0,0,1-.17-.07.24.24,0,0,1,0-.36.26.26,0,0,1,.35,0,.27.27,0,0,1,0,.36A.29.29,0,0,1,66.5,37.25Z"/>
      <path class="b" d="M68,66a.26.26,0,0,1-.17-.07.27.27,0,0,1-.08-.18.29.29,0,0,1,.07-.18.27.27,0,0,1,.36,0,.26.26,0,0,1,.07.18.23.23,0,0,1-.07.17A.25.25,0,0,1,68,66Z"/>
      <path class="b" d="M59.75,69.75a.25.25,0,0,1-.18-.08.24.24,0,0,1-.07-.17.25.25,0,0,1,.08-.18.26.26,0,0,1,.35,0,.26.26,0,0,1,.07.18.24.24,0,0,1-.07.18A.29.29,0,0,1,59.75,69.75Z"/>
      <path class="b" d="M40.5,68a.23.23,0,0,1-.17-.07.24.24,0,0,1,0-.36.26.26,0,0,1,.35,0,.25.25,0,0,1-.18.43Z"/>
      <path class="b" d="M44,63a.26.26,0,0,1-.25-.25.25.25,0,0,1,.08-.18.26.26,0,0,1,.35,0,.26.26,0,0,1,.07.18A.24.24,0,0,1,44,63Z"/>
      <path class="b" d="M25.75,70a.23.23,0,0,1-.17-.07.24.24,0,0,1,0-.36.26.26,0,0,1,.35,0,.24.24,0,0,1,.07.18.23.23,0,0,1-.07.17A.22.22,0,0,1,25.75,70Z"/>
      <path class="b" d="M4.5,60a.23.23,0,0,1-.17-.07.25.25,0,0,1-.08-.18.26.26,0,0,1,.07-.17.25.25,0,0,1,.36,0,.27.27,0,0,1,.07.18A.24.24,0,0,1,4.5,60Z"/>
      <path class="b" d="M26.5,59.5a.23.23,0,0,1-.17-.07.24.24,0,0,1,0-.36.26.26,0,0,1,.35,0,.24.24,0,0,1,.07.18.26.26,0,0,1-.07.18A.24.24,0,0,1,26.5,59.5Z"/>
      <path class="b" d="M37.25,48.5a.28.28,0,0,1-.17-.07.24.24,0,0,1,0-.36.25.25,0,0,1,.34,0,.23.23,0,0,1,.08.18.26.26,0,0,1-.07.18A.27.27,0,0,1,37.25,48.5Z"/>
      <path class="b" d="M22,41.75a.23.23,0,0,1-.17-.07.24.24,0,0,1,0-.36.26.26,0,0,1,.35,0,.25.25,0,0,1-.18.43Z"/>
      <path class="b" d="M8.75,40.25a.26.26,0,0,1-.17-.07A.27.27,0,0,1,8.5,40a.25.25,0,0,1,.08-.18.26.26,0,0,1,.35,0A.29.29,0,0,1,9,40a.24.24,0,0,1-.25.25Z"/>
      <path class="b" d="M24,29a.23.23,0,0,1-.17-.07.24.24,0,0,1,0-.36.26.26,0,0,1,.35,0,.26.26,0,0,1,.07.18.23.23,0,0,1-.07.17A.22.22,0,0,1,24,29Z"/>
      <path class="b" d="M41.5,34.5a.26.26,0,0,1-.17-.07.24.24,0,0,1,0-.36.25.25,0,0,1,.34,0,.24.24,0,0,1,.08.18.23.23,0,0,1-.07.17A.22.22,0,0,1,41.5,34.5Z"/>
      <path class="b" d="M51.5,37.5a.26.26,0,0,1-.17-.07.24.24,0,0,1,0-.36.26.26,0,0,1,.35,0,.26.26,0,0,1,.07.18.26.26,0,0,1-.25.25Z"/>
      <path class="b" d="M60.75,46a.28.28,0,0,1-.17-.07.25.25,0,0,1-.08-.18.23.23,0,0,1,.08-.18.26.26,0,0,1,.35,0,.27.27,0,0,1,0,.36A.29.29,0,0,1,60.75,46Z"/>
      <path class="b" d="M67.5,43.75a.26.26,0,0,1-.17-.07.24.24,0,0,1,0-.36.27.27,0,0,1,.35,0,.27.27,0,0,1,0,.36A.29.29,0,0,1,67.5,43.75Z"/>
      <path class="b" d="M51.25,66.25a.23.23,0,0,1-.17-.07.24.24,0,0,1,0-.36.26.26,0,0,1,.35,0,.24.24,0,0,1,.07.18.29.29,0,0,1-.07.18A.24.24,0,0,1,51.25,66.25Z"/>
      <path class="b" d="M40,37.75a.26.26,0,0,1-.17-.07.24.24,0,0,1,0-.36.26.26,0,0,1,.35,0,.26.26,0,0,1,.07.18.23.23,0,0,1-.07.17A.25.25,0,0,1,40,37.75Z"/>
      <path class="b" d="M53.25,15a.26.26,0,0,1-.17-.07.24.24,0,0,1,0-.36.26.26,0,0,1,.35,0,.22.22,0,0,1,.07.17.26.26,0,0,1-.07.18A.29.29,0,0,1,53.25,15Z"/>
      <path class="b" d="M34,16a.25.25,0,0,1-.18-.08.24.24,0,0,1-.07-.17.23.23,0,0,1,.08-.18.26.26,0,0,1,.35,0,.24.24,0,0,1,.07.18.26.26,0,0,1-.07.18A.29.29,0,0,1,34,16Z"/>
      <path class="b" d="M27.5,13.5a.23.23,0,0,1-.17-.07.25.25,0,0,1-.08-.18.24.24,0,0,1,.07-.17.25.25,0,0,1,.36,0,.26.26,0,0,1,.07.18.24.24,0,0,1-.25.25Z"/>
      <path class="b" d="M12.75,19.25a.26.26,0,0,1-.17-.07A.25.25,0,0,1,12.5,19a.28.28,0,0,1,.07-.17.26.26,0,0,1,.36,0A.26.26,0,0,1,13,19a.24.24,0,0,1-.25.25Z"/>
      <path class="b" d="M19.75,26.5a.23.23,0,0,1-.17-.07.25.25,0,0,1-.08-.18.28.28,0,0,1,.07-.17.25.25,0,0,1,.36,0,.26.26,0,0,1,.07.18.24.24,0,0,1-.07.18A.26.26,0,0,1,19.75,26.5Z"/>
      <path class="b" d="M49.5,4.5a.26.26,0,0,1-.17-.07.24.24,0,0,1,0-.36.27.27,0,0,1,.35,0,.27.27,0,0,1,0,.36A.29.29,0,0,1,49.5,4.5Z"/>
      <path class="b" d="M11.75,1.75a.23.23,0,0,1-.17-.07.25.25,0,0,1-.08-.18.31.31,0,0,1,.07-.18.27.27,0,0,1,.36,0,.27.27,0,0,1,0,.36A.24.24,0,0,1,11.75,1.75Z"/>
      <path class="b" d="M55.25,3.75a.26.26,0,0,1-.17-.07.24.24,0,0,1,0-.36.26.26,0,0,1,.35,0,.27.27,0,0,1,0,.36A.29.29,0,0,1,55.25,3.75Z"/>
      <path class="b" d="M59,20.75a.26.26,0,0,1-.17-.07.24.24,0,0,1,0-.36.26.26,0,0,1,.35,0,.27.27,0,0,1,.07.18.23.23,0,0,1-.07.17A.22.22,0,0,1,59,20.75Z"/>
      <path class="b" d="M67.5,57.25a.26.26,0,0,1-.17-.07.27.27,0,0,1-.08-.18.25.25,0,0,1,.08-.18.26.26,0,0,1,.35,0,.26.26,0,0,1,.07.18.23.23,0,0,1-.07.17A.25.25,0,0,1,67.5,57.25Z"/>
      <path class="b" d="M47.25,69.75a.26.26,0,0,1-.17-.07.24.24,0,0,1,0-.36.27.27,0,0,1,.35,0,.27.27,0,0,1,0,.36A.24.24,0,0,1,47.25,69.75Z"/>
      <path class="b" d="M5.25,69.75a.26.26,0,0,1-.17-.07A.25.25,0,0,1,5,69.5a.28.28,0,0,1,.07-.17.26.26,0,0,1,.36,0,.26.26,0,0,1,.07.18.24.24,0,0,1-.07.18A.26.26,0,0,1,5.25,69.75Z"/>
      <path class="b" d="M4.75,40.25a.31.31,0,0,1-.18-.07.27.27,0,0,1,0-.36.27.27,0,0,1,.36,0,.27.27,0,0,1,0,.36A.29.29,0,0,1,4.75,40.25Z"/>
      <path class="b" d="M69.75,12.75a.24.24,0,0,1-.17-.07.24.24,0,0,1,0-.36.26.26,0,0,1,.35,0,.27.27,0,0,1,0,.36A.29.29,0,0,1,69.75,12.75Z"/>
      <path class="b" d="M23.25,14a.23.23,0,0,1-.17-.07.25.25,0,0,1-.08-.18.24.24,0,0,1,.07-.17.25.25,0,0,1,.36,0,.27.27,0,0,1,.07.18.26.26,0,0,1-.07.18A.24.24,0,0,1,23.25,14Z"/>
      <path class="b" d="M20.5,17.25a.26.26,0,0,1-.17-.07.24.24,0,0,1,0-.36.26.26,0,0,1,.35,0,.22.22,0,0,1,.07.17.26.26,0,0,1-.07.18A.29.29,0,0,1,20.5,17.25Z"/>
      <path class="b" d="M14.75,17.25a.23.23,0,0,1-.17-.07A.25.25,0,0,1,14.5,17a.31.31,0,0,1,.07-.18.27.27,0,0,1,.36,0,.27.27,0,0,1,0,.36A.24.24,0,0,1,14.75,17.25Z"/>
      <path class="b" d="M2.75,13.25a.24.24,0,0,1-.17-.07A.27.27,0,0,1,2.5,13a.25.25,0,0,1,.08-.18.26.26,0,0,1,.35,0A.29.29,0,0,1,3,13a.24.24,0,0,1-.07.18A.29.29,0,0,1,2.75,13.25Z"/>
      <path class="b" d="M6,11.75a.23.23,0,0,1-.17-.07.27.27,0,0,1-.08-.18.29.29,0,0,1,.07-.18.26.26,0,0,1,.36,0,.24.24,0,0,1,.07.18.23.23,0,0,1-.07.17A.22.22,0,0,1,6,11.75Z"/>
      <path class="b" d="M7,2.75a.23.23,0,0,1-.17-.07.27.27,0,0,1-.08-.18.29.29,0,0,1,.07-.18.27.27,0,0,1,.36,0,.26.26,0,0,1,.07.18.23.23,0,0,1-.07.17A.22.22,0,0,1,7,2.75Z"/>
      <path class="b" d="M10,8.25a.29.29,0,0,1-.18-.07A.31.31,0,0,1,9.75,8a.29.29,0,0,1,.07-.18.27.27,0,0,1,.36,0,.24.24,0,0,1,.07.18.26.26,0,0,1-.25.25Z"/>
      <path class="b" d="M16,8.25a.31.31,0,0,1-.18-.07A.29.29,0,0,1,15.75,8a.25.25,0,0,1,.08-.18.26.26,0,0,1,.35,0,.27.27,0,0,1,0,.36A.29.29,0,0,1,16,8.25Z"/>
      <path class="b" d="M16.5,3.25a.23.23,0,0,1-.17-.07A.25.25,0,0,1,16.25,3a.29.29,0,0,1,.07-.18.26.26,0,0,1,.36,0,.27.27,0,0,1,0,.36A.26.26,0,0,1,16.5,3.25Z"/>
      <path class="b" d="M25.75,7a.23.23,0,0,1-.17-.07.24.24,0,0,1,0-.36.26.26,0,0,1,.35,0,.27.27,0,0,1,0,.36A.24.24,0,0,1,25.75,7Z"/>
      <path class="b" d="M37,7.5a.23.23,0,0,1-.17-.07.24.24,0,0,1,0-.36.26.26,0,0,1,.35,0,.27.27,0,0,1,0,.36A.26.26,0,0,1,37,7.5Z"/>
      <path class="b" d="M40.5,4.5a.26.26,0,0,1-.17-.07.23.23,0,0,1-.08-.18.25.25,0,0,1,.08-.18.26.26,0,0,1,.35,0,.27.27,0,0,1,.07.18.24.24,0,0,1-.07.18A.29.29,0,0,1,40.5,4.5Z"/>
      <path class="b" d="M37.5,4.25a.26.26,0,0,1-.17-.07A.23.23,0,0,1,37.25,4a.25.25,0,0,1,.08-.18.26.26,0,0,1,.35,0,.27.27,0,0,1,.07.18.26.26,0,0,1-.07.18A.24.24,0,0,1,37.5,4.25Z"/>
      <path class="b" d="M43.25,2.25a.25.25,0,0,1-.18-.08A.24.24,0,0,1,43,2a.25.25,0,0,1,.08-.18.26.26,0,0,1,.35,0,.27.27,0,0,1,0,.36A.29.29,0,0,1,43.25,2.25Z"/>
      <path class="b" d="M49.5,8.25a.26.26,0,0,1-.17-.07.24.24,0,0,1,0-.36.26.26,0,0,1,.35,0,.27.27,0,0,1,0,.36A.29.29,0,0,1,49.5,8.25Z"/>
      <path class="b" d="M46,9.25a.26.26,0,0,1-.17-.07.24.24,0,0,1,0-.36.27.27,0,0,1,.35,0,.27.27,0,0,1,0,.36A.29.29,0,0,1,46,9.25Z"/>
      <path class="b" d="M35.75,11a.26.26,0,0,1-.17-.07.24.24,0,0,1,0-.36.26.26,0,0,1,.35,0,.27.27,0,0,1,0,.36A.29.29,0,0,1,35.75,11Z"/>
      <path class="b" d="M39.25,15a.23.23,0,0,1-.17-.07.24.24,0,0,1,0-.36.26.26,0,0,1,.35,0,.27.27,0,0,1,.07.18.26.26,0,0,1-.07.18A.24.24,0,0,1,39.25,15Z"/>
      <path class="b" d="M24.75,18a.23.23,0,0,1-.17-.07.25.25,0,0,1-.08-.18.29.29,0,0,1,.07-.18.27.27,0,0,1,.36,0,.25.25,0,0,1-.18.43Z"/>
      <path class="b" d="M8.25,27.25a.23.23,0,0,1-.17-.07A.25.25,0,0,1,8,27a.29.29,0,0,1,.07-.18.26.26,0,0,1,.36,0A.26.26,0,0,1,8.5,27a.24.24,0,0,1-.07.18A.29.29,0,0,1,8.25,27.25Z"/>
      <path class="b" d="M16,31.75a.31.31,0,0,1-.18-.07.29.29,0,0,1-.07-.18.25.25,0,0,1,.08-.18.26.26,0,0,1,.35,0,.27.27,0,0,1,0,.36A.29.29,0,0,1,16,31.75Z"/>
      <path class="b" d="M10.5,33.5a.23.23,0,0,1-.17-.07.27.27,0,0,1-.08-.18.29.29,0,0,1,.07-.18.26.26,0,0,1,.36,0,.26.26,0,0,1,.07.18.23.23,0,0,1-.07.17A.22.22,0,0,1,10.5,33.5Z"/>
      <path class="b" d="M5.25,37a.26.26,0,0,1-.17-.07A.25.25,0,0,1,5,36.75a.28.28,0,0,1,.07-.17.26.26,0,0,1,.36,0,.26.26,0,0,1,.07.18.24.24,0,0,1-.07.18A.26.26,0,0,1,5.25,37Z"/>
      <path class="b" d="M2.75,32a.26.26,0,0,1-.17-.07.27.27,0,0,1-.08-.18.25.25,0,0,1,.08-.18.26.26,0,0,1,.35,0,.29.29,0,0,1,.07.18.24.24,0,0,1-.07.18A.29.29,0,0,1,2.75,32Z"/>
      <path class="b" d="M7.5,25a.25.25,0,0,1-.18-.43.26.26,0,0,1,.35,0,.23.23,0,0,1,.08.18.26.26,0,0,1-.07.18A.29.29,0,0,1,7.5,25Z"/>
      <path class="b" d="M3.25,20.5a.26.26,0,0,1-.17-.07A.25.25,0,0,1,3,20.25a.26.26,0,0,1,.43-.18.26.26,0,0,1,.07.18.24.24,0,0,1-.07.18A.26.26,0,0,1,3.25,20.5Z"/>
      <path class="b" d="M20.5,30.75a.26.26,0,0,1-.17-.07.24.24,0,0,1,0-.36.26.26,0,0,1,.35,0,.27.27,0,0,1,.07.18.23.23,0,0,1-.07.17A.25.25,0,0,1,20.5,30.75Z"/>
      <path class="b" d="M17.5,35.5a.28.28,0,0,1-.17-.07.25.25,0,0,1,0-.36.27.27,0,0,1,.36,0,.24.24,0,0,1,.07.18.22.22,0,0,1-.07.17A.25.25,0,0,1,17.5,35.5Z"/>
      <path class="b" d="M16,39a.23.23,0,0,1-.17-.07.24.24,0,0,1,0-.36.26.26,0,0,1,.35,0A.25.25,0,0,1,16,39Z"/>
      <path class="b" d="M12.75,41.25a.26.26,0,0,1-.17-.07A.25.25,0,0,1,12.5,41a.31.31,0,0,1,.07-.18.27.27,0,0,1,.36,0,.27.27,0,0,1,0,.36A.29.29,0,0,1,12.75,41.25Z"/>
      <path class="b" d="M12.75,46.5a.24.24,0,0,1-.17-.07.27.27,0,0,1-.08-.18.29.29,0,0,1,.07-.18.27.27,0,0,1,.36,0,.25.25,0,0,1-.18.43Z"/>
      <path class="b" d="M4,46.75a.26.26,0,0,1-.17-.07.25.25,0,0,1-.08-.18.31.31,0,0,1,.07-.18.26.26,0,0,1,.35,0,.23.23,0,0,1,.08.18.24.24,0,0,1-.07.18A.26.26,0,0,1,4,46.75Z"/>
      <path class="b" d="M5.75,48.5a.25.25,0,0,1-.18-.08.24.24,0,0,1-.07-.17.29.29,0,0,1,.07-.18.27.27,0,0,1,.36,0,.27.27,0,0,1,0,.36A.29.29,0,0,1,5.75,48.5Z"/>
      <path class="b" d="M11,50.5a.23.23,0,0,1-.17-.07.25.25,0,0,1-.08-.18.26.26,0,0,1,.07-.17.25.25,0,0,1,.36,0,.27.27,0,0,1,.07.18.24.24,0,0,1-.25.25Z"/>
      <path class="b" d="M11,54.5a.31.31,0,0,1-.18-.07.27.27,0,0,1,0-.36.27.27,0,0,1,.36,0,.27.27,0,0,1,0,.36A.29.29,0,0,1,11,54.5Z"/>
      <path class="b" d="M15.5,58.5a.28.28,0,0,1-.17-.07.25.25,0,0,1-.08-.18.29.29,0,0,1,.07-.18.27.27,0,0,1,.36,0,.27.27,0,0,1,0,.36A.29.29,0,0,1,15.5,58.5Z"/>
      <path class="b" d="M10,59.75a.29.29,0,0,1-.18-.07.31.31,0,0,1-.07-.18.29.29,0,0,1,.07-.18.27.27,0,0,1,.36,0,.24.24,0,0,1,.07.18.26.26,0,0,1-.07.18A.24.24,0,0,1,10,59.75Z"/>
      <path class="b" d="M6,63.5a.23.23,0,0,1-.17-.07.27.27,0,0,1-.08-.18.29.29,0,0,1,.07-.18.26.26,0,0,1,.36,0,.24.24,0,0,1,.07.18.23.23,0,0,1-.07.17A.22.22,0,0,1,6,63.5Z"/>
      <path class="b" d="M2.25,62a.23.23,0,0,1-.17-.07A.25.25,0,0,1,2,61.75a.29.29,0,0,1,.07-.18.26.26,0,0,1,.35,0,.23.23,0,0,1,.08.18.26.26,0,0,1-.07.18A.27.27,0,0,1,2.25,62Z"/>
      <path class="b" d="M7.25,67.75a.26.26,0,0,1-.17-.07A.27.27,0,0,1,7,67.5a.29.29,0,0,1,.07-.18.27.27,0,0,1,.36,0,.29.29,0,0,1,.07.18.21.21,0,0,1-.07.17A.22.22,0,0,1,7.25,67.75Z"/>
      <path class="b" d="M13.5,69.5a.23.23,0,0,1-.17-.07.27.27,0,0,1-.08-.18.29.29,0,0,1,.07-.18.27.27,0,0,1,.36,0,.26.26,0,0,1,.07.18.23.23,0,0,1-.07.17A.22.22,0,0,1,13.5,69.5Z"/>
      <path class="b" d="M13.5,65.75a.23.23,0,0,1-.17-.07.25.25,0,0,1-.08-.18.26.26,0,0,1,.07-.17.25.25,0,0,1,.36,0,.27.27,0,0,1,.07.18.26.26,0,0,1-.07.18A.24.24,0,0,1,13.5,65.75Z"/>
      <path class="b" d="M21.5,68.5a.23.23,0,0,1-.17-.07.24.24,0,0,1,0-.36.26.26,0,0,1,.35,0,.26.26,0,0,1,.07.18.23.23,0,0,1-.07.17A.22.22,0,0,1,21.5,68.5Z"/>
      <path class="b" d="M23,65.75a.23.23,0,0,1-.17-.07.25.25,0,0,1-.08-.18.28.28,0,0,1,.07-.17.25.25,0,0,1,.36,0,.26.26,0,0,1,.07.18.24.24,0,0,1-.25.25Z"/>
      <path class="b" d="M22.25,60a.23.23,0,0,1-.17-.07.25.25,0,0,1-.08-.18.28.28,0,0,1,.07-.17.25.25,0,0,1,.36,0,.26.26,0,0,1,.07.18.24.24,0,0,1-.07.18A.26.26,0,0,1,22.25,60Z"/>
      <path class="b" d="M24.25,57.5a.23.23,0,0,1-.17-.07.24.24,0,0,1,0-.36.26.26,0,0,1,.35,0,.27.27,0,0,1,0,.36A.24.24,0,0,1,24.25,57.5Z"/>
      <path class="b" d="M22,53.25a.23.23,0,0,1-.17-.07.25.25,0,0,1-.08-.18.24.24,0,0,1,.07-.17.25.25,0,0,1,.36,0,.27.27,0,0,1,.07.18.26.26,0,0,1-.07.18A.24.24,0,0,1,22,53.25Z"/>
      <path class="b" d="M26.25,47.75a.23.23,0,0,1-.17-.07.24.24,0,0,1,0-.36.26.26,0,0,1,.35,0,.27.27,0,0,1,0,.36A.24.24,0,0,1,26.25,47.75Z"/>
      <path class="b" d="M25.75,43.5a.23.23,0,0,1-.17-.07.25.25,0,0,1-.08-.18.29.29,0,0,1,.07-.18.25.25,0,0,1,.43.18.24.24,0,0,1-.25.25Z"/>
      <path class="b" d="M31.25,37.5a.28.28,0,0,1-.17-.07.27.27,0,0,1-.08-.18.26.26,0,0,1,.07-.17.25.25,0,0,1,.36,0,.27.27,0,0,1,.07.18.23.23,0,0,1-.07.17A.25.25,0,0,1,31.25,37.5Z"/>
      <path class="b" d="M32.25,31a.23.23,0,0,1-.17-.07.25.25,0,0,1-.08-.18.28.28,0,0,1,.07-.17.25.25,0,0,1,.36,0,.26.26,0,0,1,.07.18.29.29,0,0,1-.07.18A.24.24,0,0,1,32.25,31Z"/>
      <path class="b" d="M26,34a.23.23,0,0,1-.17-.07.24.24,0,0,1,0-.36.26.26,0,0,1,.35,0,.27.27,0,0,1,0,.36A.24.24,0,0,1,26,34Z"/>
      <path class="b" d="M34.25,27.75a.26.26,0,0,1-.17-.07.24.24,0,0,1,0-.36.26.26,0,0,1,.35,0,.27.27,0,0,1,.07.18.26.26,0,0,1-.07.18A.29.29,0,0,1,34.25,27.75Z"/>
      <path class="b" d="M37.25,28.5a.26.26,0,0,1-.17-.07.24.24,0,0,1,0-.36.25.25,0,0,1,.34,0,.23.23,0,0,1,.08.18.23.23,0,0,1-.07.17A.22.22,0,0,1,37.25,28.5Z"/>
      <path class="b" d="M41.75,25.75a.28.28,0,0,1-.17-.07.24.24,0,0,1,0-.36.26.26,0,0,1,.35,0,.27.27,0,0,1,.07.18.23.23,0,0,1-.07.17A.25.25,0,0,1,41.75,25.75Z"/>
      <path class="b" d="M43,20.75a.23.23,0,0,1-.17-.07.24.24,0,0,1,0-.36.26.26,0,0,1,.35,0,.25.25,0,0,1-.18.43Z"/>
      <path class="b" d="M36.5,19.25a.26.26,0,0,1-.17-.07.24.24,0,0,1,0-.36.27.27,0,0,1,.35,0,.27.27,0,0,1,0,.36A.24.24,0,0,1,36.5,19.25Z"/>
      <path class="b" d="M27.75,22.25a.28.28,0,0,1-.17-.07A.27.27,0,0,1,27.5,22a.26.26,0,0,1,.07-.17.25.25,0,0,1,.36,0,.27.27,0,0,1,0,.36A.29.29,0,0,1,27.75,22.25Z"/>
      <path class="b" d="M52,22a.26.26,0,0,1-.17-.07.24.24,0,0,1,0-.36.26.26,0,0,1,.35,0,.27.27,0,0,1,.07.18.23.23,0,0,1-.07.17A.25.25,0,0,1,52,22Z"/>
      <path class="b" d="M43.25,17.75a.26.26,0,0,1-.17-.07A.25.25,0,0,1,43,17.5a.31.31,0,0,1,.07-.18.25.25,0,0,1,.43.18.23.23,0,0,1-.07.17A.22.22,0,0,1,43.25,17.75Z"/>
      <path class="b" d="M50.5,18a.26.26,0,0,1-.17-.07.24.24,0,0,1,0-.36.26.26,0,0,1,.35,0,.27.27,0,0,1,.07.18.23.23,0,0,1-.07.17A.25.25,0,0,1,50.5,18Z"/>
      <path class="b" d="M59.5,17.25a.26.26,0,0,1-.17-.07.24.24,0,0,1,0-.36.26.26,0,0,1,.35,0,.27.27,0,0,1,0,.36A.29.29,0,0,1,59.5,17.25Z"/>
      <path class="b" d="M58.25,14a.26.26,0,0,1-.17-.07.24.24,0,0,1,0-.36.26.26,0,0,1,.35,0,.24.24,0,0,1,.07.18.26.26,0,0,1-.07.18A.29.29,0,0,1,58.25,14Z"/>
      <path class="b" d="M61.5,11a.23.23,0,0,1-.17-.07.25.25,0,0,1-.08-.18.23.23,0,0,1,.08-.18.26.26,0,0,1,.35,0,.27.27,0,0,1,0,.36A.24.24,0,0,1,61.5,11Z"/>
      <path class="b" d="M58.75,7.5a.23.23,0,0,1-.17-.07.24.24,0,0,1,0-.36.26.26,0,0,1,.35,0,.25.25,0,0,1-.18.43Z"/>
      <path class="b" d="M60,4.75a.26.26,0,0,1-.17-.07.25.25,0,0,1-.08-.18.29.29,0,0,1,.07-.18.27.27,0,0,1,.36,0,.24.24,0,0,1,.07.18.21.21,0,0,1-.07.17A.22.22,0,0,1,60,4.75Z"/>
      <path class="b" d="M67.5,6a.26.26,0,0,1-.17-.07.27.27,0,0,1-.08-.18.26.26,0,0,1,.43-.18.27.27,0,0,1,.07.18.23.23,0,0,1-.07.17A.25.25,0,0,1,67.5,6Z"/>
      <path class="b" d="M69.5,8a.28.28,0,0,1-.17-.07.25.25,0,0,1-.08-.18.31.31,0,0,1,.07-.18.27.27,0,0,1,.36,0,.26.26,0,0,1,.07.18A.24.24,0,0,1,69.5,8Z"/>
      <path class="b" d="M65.75,9.75a.26.26,0,0,1-.17-.07.24.24,0,0,1,0-.36.26.26,0,0,1,.35,0,.27.27,0,0,1,0,.36A.29.29,0,0,1,65.75,9.75Z"/>
      <path class="b" d="M61.75,16.5a.26.26,0,0,1-.17-.07.24.24,0,0,1,0-.36.26.26,0,0,1,.35,0,.26.26,0,0,1,.07.18.26.26,0,0,1-.25.25Z"/>
      <path class="b" d="M60.25,23.75a.28.28,0,0,1-.17-.07.24.24,0,0,1,0-.36.26.26,0,0,1,.35,0,.29.29,0,0,1,.07.18.24.24,0,0,1-.25.25Z"/>
      <path class="b" d="M55.5,23.75a.26.26,0,0,1-.17-.07.24.24,0,0,1,0-.36.26.26,0,0,1,.35,0,.27.27,0,0,1,0,.36A.29.29,0,0,1,55.5,23.75Z"/>
      <path class="b" d="M55.5,18.75a.26.26,0,0,1-.17-.07.24.24,0,0,1,0-.36.26.26,0,0,1,.35,0,.27.27,0,0,1,0,.36A.29.29,0,0,1,55.5,18.75Z"/>
      <path class="b" d="M65,25.75a.28.28,0,0,1-.17-.07.24.24,0,0,1,0-.36.26.26,0,0,1,.35,0,.26.26,0,0,1,.07.18.24.24,0,0,1-.25.25Z"/>
      <path class="b" d="M61.25,27a.26.26,0,0,1-.17-.07.24.24,0,0,1,0-.36.26.26,0,0,1,.35,0,.24.24,0,0,1,.07.18.24.24,0,0,1-.25.25Z"/>
      <path class="b" d="M57.75,30.75a.23.23,0,0,1-.17-.07.24.24,0,0,1,0-.36.26.26,0,0,1,.35,0,.24.24,0,0,1,.07.18.21.21,0,0,1-.07.17A.22.22,0,0,1,57.75,30.75Z"/>
      <path class="b" d="M52.75,32.75a.26.26,0,0,1-.17-.07.24.24,0,0,1,0-.36.26.26,0,0,1,.35,0,.26.26,0,0,1,.07.18.26.26,0,0,1-.25.25Z"/>
      <path class="b" d="M47.5,33.75a.28.28,0,0,1-.17-.07.24.24,0,0,1,0-.36.25.25,0,0,1,.34,0,.24.24,0,0,1,.08.18.23.23,0,0,1-.07.17A.23.23,0,0,1,47.5,33.75Z"/>
      <path class="b" d="M44.25,39.25a.28.28,0,0,1-.17-.07.24.24,0,0,1,0-.36.26.26,0,0,1,.35,0,.27.27,0,0,1,0,.36A.26.26,0,0,1,44.25,39.25Z"/>
      <path class="b" d="M34,41.5a.23.23,0,0,1-.17-.07.24.24,0,0,1,0-.36.26.26,0,0,1,.35,0,.27.27,0,0,1,0,.36A.29.29,0,0,1,34,41.5Z"/>
      <path class="b" d="M40.75,48a.23.23,0,0,1-.17-.07.24.24,0,0,1,0-.36.26.26,0,0,1,.35,0,.27.27,0,0,1,0,.36A.24.24,0,0,1,40.75,48Z"/>
      <path class="b" d="M45.75,52.25a.23.23,0,0,1-.17-.07.24.24,0,0,1,0-.36.26.26,0,0,1,.35,0A.24.24,0,0,1,46,52a.29.29,0,0,1-.07.18A.24.24,0,0,1,45.75,52.25Z"/>
      <path class="b" d="M46.5,56.75a.28.28,0,0,1-.17-.07.24.24,0,0,1,0-.36.26.26,0,0,1,.35,0,.26.26,0,0,1,.07.18.26.26,0,0,1-.25.25Z"/>
      <path class="b" d="M42,59.5a.23.23,0,0,1-.17-.07.24.24,0,0,1,0-.36.26.26,0,0,1,.35,0,.29.29,0,0,1,.07.18.24.24,0,0,1-.07.18A.26.26,0,0,1,42,59.5Z"/>
      <path class="b" d="M40,62.75a.28.28,0,0,1-.17-.07.25.25,0,0,1-.08-.18.23.23,0,0,1,.08-.18.26.26,0,0,1,.35,0,.24.24,0,0,1,.07.18.26.26,0,0,1-.07.18A.29.29,0,0,1,40,62.75Z"/>
      <path class="b" d="M36,62.75a.23.23,0,0,1-.17-.07.24.24,0,0,1,0-.36.26.26,0,0,1,.35,0,.27.27,0,0,1,.07.18.26.26,0,0,1-.07.18A.29.29,0,0,1,36,62.75Z"/>
      <path class="b" d="M36.5,52.75a.24.24,0,0,1-.17-.07.24.24,0,0,1,0-.36.26.26,0,0,1,.35,0,.27.27,0,0,1,.07.18.23.23,0,0,1-.07.17A.25.25,0,0,1,36.5,52.75Z"/>
      <path class="b" d="M30,63.5a.26.26,0,0,1-.17-.07.24.24,0,0,1,0-.36.26.26,0,0,1,.35,0,.26.26,0,0,1,.07.18.22.22,0,0,1-.07.17A.25.25,0,0,1,30,63.5Z"/>
      <path class="b" d="M31.5,68.5a.25.25,0,0,1-.18-.08.24.24,0,0,1-.07-.17.23.23,0,0,1,.08-.18.26.26,0,0,1,.34,0,.22.22,0,0,1,.08.18.26.26,0,0,1-.07.18A.29.29,0,0,1,31.5,68.5Z"/>
      <path class="b" d="M37,71a.23.23,0,0,1-.17-.07.24.24,0,0,1,0-.36.26.26,0,0,1,.35,0A.25.25,0,0,1,37,71Z"/>
      <path class="b" d="M58.75,57a.23.23,0,0,1-.17-.07.24.24,0,0,1,0-.36.26.26,0,0,1,.35,0,.25.25,0,0,1-.18.43Z"/>
      <path class="b" d="M63,57a.28.28,0,0,1-.17-.07.24.24,0,0,1,0-.36.26.26,0,0,1,.35,0,.24.24,0,0,1,.07.18.21.21,0,0,1-.07.17A.22.22,0,0,1,63,57Z"/>
      <path class="b" d="M60,50.75a.28.28,0,0,1-.17-.07.25.25,0,0,1-.08-.18.23.23,0,0,1,.08-.18.26.26,0,0,1,.35,0,.29.29,0,0,1,.07.18.24.24,0,0,1-.07.18A.29.29,0,0,1,60,50.75Z"/>
      <path class="b" d="M54.5,50.5a.24.24,0,0,1-.17-.07.27.27,0,0,1-.08-.18.26.26,0,0,1,.43-.18.27.27,0,0,1,.07.18.23.23,0,0,1-.07.17A.25.25,0,0,1,54.5,50.5Z"/>
      <path class="b" d="M59.25,44.25a.26.26,0,0,1-.17-.07A.27.27,0,0,1,59,44a.26.26,0,0,1,.43-.18.27.27,0,0,1,.07.18.26.26,0,0,1-.25.25Z"/>
      <path class="b" d="M54.75,41.75a.26.26,0,0,1-.17-.07.24.24,0,0,1,0-.36.26.26,0,0,1,.35,0,.27.27,0,0,1,0,.36A.29.29,0,0,1,54.75,41.75Z"/>
      <path class="b" d="M55.75,35.5a.23.23,0,0,1-.17-.07.24.24,0,0,1,0-.36.26.26,0,0,1,.35,0,.25.25,0,0,1-.18.43Z"/>
      <path class="b" d="M62.5,42.25a.26.26,0,0,1-.17-.07.24.24,0,0,1,0-.36.26.26,0,0,1,.34,0,.23.23,0,0,1,.08.18.24.24,0,0,1-.25.25Z"/>
      <path class="b" d="M67,47.5a.26.26,0,0,1-.17-.07.24.24,0,0,1,0-.36.27.27,0,0,1,.35,0,.24.24,0,0,1,.07.18.29.29,0,0,1-.07.18A.24.24,0,0,1,67,47.5Z"/>
      <path class="b" d="M69.5,54.25a.26.26,0,0,1-.17-.07.24.24,0,0,1,0-.36.26.26,0,0,1,.35,0,.27.27,0,0,1,0,.36A.29.29,0,0,1,69.5,54.25Z"/>
      <path class="b" d="M63.5,61.75a.26.26,0,0,1-.17-.07.27.27,0,0,1-.08-.18.25.25,0,0,1,.08-.18.26.26,0,0,1,.35,0,.26.26,0,0,1,.07.18.23.23,0,0,1-.07.17A.22.22,0,0,1,63.5,61.75Z"/>
      <path class="b" d="M69.25,63.5a.23.23,0,0,1-.17-.07.24.24,0,0,1,0-.36.26.26,0,0,1,.35,0,.26.26,0,0,1,.07.18.26.26,0,0,1-.25.25Z"/>
      <path class="b" d="M64.75,65.5a.24.24,0,0,1-.17-.07.27.27,0,0,1-.08-.18.28.28,0,0,1,.07-.17.26.26,0,0,1,.36,0,.27.27,0,0,1,.07.18.26.26,0,0,1-.25.25Z"/>
      <path class="b" d="M65.75,68.25a.26.26,0,0,1-.17-.07.24.24,0,0,1,0-.36.26.26,0,0,1,.35,0A.26.26,0,0,1,66,68a.24.24,0,0,1-.07.18A.29.29,0,0,1,65.75,68.25Z"/>
      <path class="b" d="M69.25,70.5a.26.26,0,0,1-.17-.07.27.27,0,0,1-.08-.18.25.25,0,0,1,.08-.18.26.26,0,0,1,.35,0,.24.24,0,0,1,.07.18.26.26,0,0,1-.25.25Z"/>
      <path class="b" d="M62.5,70.25a.26.26,0,0,1-.17-.07.24.24,0,0,1,0-.36.25.25,0,0,1,.34,0,.23.23,0,0,1,.08.18.26.26,0,0,1-.07.18A.27.27,0,0,1,62.5,70.25Z"/>
      <path class="b" d="M60.75,65.75a.26.26,0,0,1-.17-.07.24.24,0,0,1,0-.36.26.26,0,0,1,.35,0,.26.26,0,0,1,.07.18.26.26,0,0,1-.25.25Z"/>
      <path class="b" d="M52.75,69.75a.26.26,0,0,1-.17-.07.24.24,0,0,1,0-.36.26.26,0,0,1,.35,0,.26.26,0,0,1,.07.18.26.26,0,0,1-.25.25Z"/>
      <path class="b" d="M44.75,66.5a.24.24,0,0,1-.17-.07.24.24,0,0,1,0-.36.26.26,0,0,1,.35,0,.24.24,0,0,1,.07.18.22.22,0,0,1-.07.17A.25.25,0,0,1,44.75,66.5Z"/>
      <path class="b" d="M44.5,71.25a.28.28,0,0,1-.17-.07.24.24,0,0,1,0-.36.26.26,0,0,1,.35,0,.27.27,0,0,1,0,.36A.26.26,0,0,1,44.5,71.25Z"/>
      <path class="b" d="M28.5,71.25a.25.25,0,0,1-.18-.08.24.24,0,0,1-.07-.17.25.25,0,0,1,.08-.18.26.26,0,0,1,.35,0,.27.27,0,0,1,0,.36A.27.27,0,0,1,28.5,71.25Z"/>
      <path class="b" d="M.75,29.5a.26.26,0,0,1-.17-.07.27.27,0,0,1-.08-.18.25.25,0,0,1,.08-.18.26.26,0,0,1,.35,0,.29.29,0,0,1,.07.18.24.24,0,0,1-.25.25Z"/>
      <path class="b" d="M24.5,1a.23.23,0,0,1-.17-.07.27.27,0,0,1-.08-.18.29.29,0,0,1,.07-.18.27.27,0,0,1,.36,0,.29.29,0,0,1,.07.18.21.21,0,0,1-.07.17A.22.22,0,0,1,24.5,1Z"/>
      <path class="b" d="M13.25,5a.29.29,0,0,1-.18-.07A.31.31,0,0,1,13,4.75a.29.29,0,0,1,.07-.18.27.27,0,0,1,.36,0,.24.24,0,0,1,.07.18.26.26,0,0,1-.25.25Z"/>
      <path class="b" d="M71,35.25a.26.26,0,0,1-.17-.07.24.24,0,0,1,0-.36.27.27,0,0,1,.35,0,.25.25,0,0,1-.18.43Z"/>
    </pattern>
  </defs>
  <title>tree</title>
  <path class="c" d="M9.34,123.18l10.26-6.36c26-12.58,43.43-13.72,72.89-29,2.5-1.3,4.79-2.58,6.9-3.86a48.61,48.61,0,0,1,25.5-1.71c8.18,4.42,9.86,19.3,25.88,22l3.95.34c-1-.35-5.76-2-6.9-2.44-10-4.27-12.25-12.83-17-18.64,13.43,3.1,26.2,7.1,47.43-5.29h0C142,91.05,130.84,75.37,109.14,77c12.69-11.12,14.65-23.72,19.69-46.21-5.43,11.71-8.24,20.52-12.09,27.81,1.16-7.52.57-13.68-3.55-22.85a35.11,35.11,0,0,0,.74,5.42C116,52.69,115,56,112.11,65.79c-4.61,5.85-11.17,10.84-22.48,16C60.45,95.17,43.85,96,20.15,105.82h0s-16,5.73-18.15,7.25"/>
  <path class="c" d="M206.61,70s-8.67-4.85-17-2.51c-6.63,1.85-11.08,7.65-12.65,10a114,114,0,0,0,20.7-5.16,11.24,11.24,0,0,1,1.74-.51,8.28,8.28,0,0,1-1.59.89,79.66,79.66,0,0,1-20.59,6.21c2.41,1.15,9.38,4,16.16,2.07C201.71,78.67,206.61,70,206.61,70Z"/>
  <path class="c" d="M109.74,4.68s-6.2,8-5.13,16.75c.85,7,6,12.32,8.1,14.25a114.22,114.22,0,0,0-2-21.6,11.18,11.18,0,0,1-.24-1.83,9,9,0,0,1,.65,1.73,81.33,81.33,0,0,1,3.09,21.66c1.52-2.25,5.41-8.83,4.55-15.93C117.68,10.94,109.74,4.68,109.74,4.68Z"/>
  <path class="c" d="M149.32,35.28s-8.36-2.19-14.91,1.6c-5.18,3-7.66,8.86-8.48,11.17a98.55,98.55,0,0,0,16.32-8.85,9.21,9.21,0,0,1,1.36-.81,7.46,7.46,0,0,1-1.15,1.1,69.81,69.81,0,0,1-16,9.72c2.28.43,8.76,1.28,14.06-1.79C147.07,43.63,149.32,35.28,149.32,35.28Z"/>
  <path class="c" d="M185.5,106.4s-6.67-7.36-15.35-7.81c-6.87-.36-12.94,3.72-15.17,5.43a113.45,113.45,0,0,0,21.26,1.71,11,11,0,0,1,1.81.08,8.44,8.44,0,0,1-1.79.34,79.73,79.73,0,0,1-21.49-.69c1.92,1.86,7.63,6.74,14.65,7.11C178.1,113,185.5,106.4,185.5,106.4Z"/>
  <path class="c" d="M115.08,116.19s9.52-2.85,13.67-10.49c3.28-6,2.22-13.28,1.63-16a113,113,0,0,0-10.7,18.45,11.71,11.71,0,0,1-.85,1.6,8.76,8.76,0,0,1,.46-1.76,80.33,80.33,0,0,1,9.88-19.11c-2.5.94-9.37,4-12.73,10.17C112.3,106.65,115.08,116.19,115.08,116.19Z"/>
  <path class="c" d="M156,66.15s-8.36-2.2-14.9,1.6c-5.18,3-7.67,8.86-8.48,11.17a98.19,98.19,0,0,0,16.31-8.86,9.7,9.7,0,0,1,1.36-.8,7.83,7.83,0,0,1-1.14,1.09,69.53,69.53,0,0,1-16,9.72c2.28.44,8.77,1.29,14.06-1.78C153.73,74.49,156,66.15,156,66.15Z"/>
  <path class="c" d="M195.83,96s-8.62,5-17,2.7c-6.65-1.78-11.17-7.53-12.76-9.84a112.94,112.94,0,0,1,20.75,4.92,11.31,11.31,0,0,0,1.75.49,8.89,8.89,0,0,0-1.6-.88,80.07,80.07,0,0,0-20.66-6c2.4-1.17,9.34-4.06,16.13-2.25C190.83,87.42,195.83,96,195.83,96Z"/>
  <path class="c" d="M147.63,132.42s-8.84-4.54-11.53-12.8c-2.13-6.54.23-13.46,1.31-16.06a113,113,0,0,1,7.17,20.09,10.81,10.81,0,0,0,.54,1.73,8.49,8.49,0,0,0-.13-1.82A80.16,80.16,0,0,0,138.75,103c2.29,1.38,8.49,5.62,10.66,12.31C152.1,123.55,147.63,132.42,147.63,132.42Z"/>
  <path class="c" d="M140.22,1.67s3.93,9.12.74,17.21c-2.52,6.4-8.75,10.24-11.23,11.55a112.06,112.06,0,0,1,7.26-20,11.93,11.93,0,0,0,.68-1.69,8.92,8.92,0,0,0-1,1.49A79.88,79.88,0,0,0,128.33,30c-.89-2.52-3-9.74-.4-16.28C131.12,5.66,140.22,1.67,140.22,1.67Z"/>
  <path class="c" d="M176.7,50.49s2.26,9.67-2.3,17.07C170.79,73.42,164,76.09,161.3,77A113.14,113.14,0,0,1,172,58.49,10.54,10.54,0,0,0,173,57a8.68,8.68,0,0,0-1.29,1.28A80.36,80.36,0,0,0,160,76.3c-.43-2.63-1.2-10.11,2.49-16.09C167,52.81,176.7,50.49,176.7,50.49Z"/>
  <path class="c" d="M164.17,29s-8.86,4.85-11.37,13.32c-2,6.71.59,13.69,1.76,16.3A115,115,0,0,0,161.31,38a11.15,11.15,0,0,1,.51-1.77,9.38,9.38,0,0,1-.09,1.84,81.63,81.63,0,0,1-5.79,21.1c2.29-1.46,8.48-5.94,10.51-12.8C169,37.89,164.17,29,164.17,29Z"/>
  <path class="d" d="M8.84,123.84c5.84-4.16,10.35-6.77,10.76-7,26-12.58,43.43-13.72,72.89-29,2.5-1.3,4.79-2.58,6.9-3.86a48.61,48.61,0,0,1,25.5-1.71c8.18,4.42,9.86,19.3,25.88,22l3.95.34c-1-.35-5.76-2-6.9-2.44-10-4.27-12.25-12.83-17-18.64,13.43,3.1,26.2,7.1,47.43-5.29h0C142,91.05,130.84,75.37,109.14,77c12.69-11.12,14.65-23.72,19.69-46.21-5.43,11.71-8.24,20.52-12.09,27.81,1.16-7.52.57-13.68-3.55-22.85a35.11,35.11,0,0,0,.74,5.42C116,52.69,115,56,112.11,65.79c-4.61,5.85-11.17,10.84-22.48,16C60.45,95.17,43.85,96,20.15,105.82h0s-16,5.73-18.15,7.25"/>
  <path class="d" d="M206.61,70s-8.67-4.85-17-2.51c-6.63,1.85-11.08,7.65-12.65,10a114,114,0,0,0,20.7-5.16,11.24,11.24,0,0,1,1.74-.51,8.28,8.28,0,0,1-1.59.89,79.66,79.66,0,0,1-20.59,6.21c2.41,1.15,9.38,4,16.16,2.07C201.71,78.67,206.61,70,206.61,70Z"/>
  <g>
    <path class="c" d="M88,58.19s4.65,6,11.24,6.89c5.22.69,10.1-2,11.9-3.22A86.39,86.39,0,0,0,95,59.26a8.13,8.13,0,0,1-1.38-.17A7.2,7.2,0,0,1,95,58.94a61.44,61.44,0,0,1,16.36,1.83c-1.35-1.53-5.41-5.61-10.75-6.31C94.06,53.59,88,58.19,88,58.19Z"/>
    <path class="d" d="M88,58.19s4.65,6,11.24,6.89c5.22.69,10.1-2,11.9-3.22A86.39,86.39,0,0,0,95,59.26a8.13,8.13,0,0,1-1.38-.17A7.2,7.2,0,0,1,95,58.94a61.44,61.44,0,0,1,16.36,1.83c-1.35-1.53-5.41-5.61-10.75-6.31C94.06,53.59,88,58.19,88,58.19Z"/>
  </g>
  <path class="d" d="M109.74,4.68s-6.2,8-5.13,16.75c.85,7,6,12.32,8.1,14.25a114.22,114.22,0,0,0-2-21.6,11.18,11.18,0,0,1-.24-1.83,9,9,0,0,1,.65,1.73,81.33,81.33,0,0,1,3.09,21.66c1.52-2.25,5.41-8.83,4.55-15.93C117.68,10.94,109.74,4.68,109.74,4.68Z"/>
  <g>
    <path class="c" d="M95.18,38.08s1.48,6.48,6.39,9.58c3.9,2.46,8.77,2.07,10.63,1.8a76.53,76.53,0,0,0-11.84-8,6.52,6.52,0,0,1-1-.64,6.23,6.23,0,0,1,1.15.39,53.73,53.73,0,0,1,12.32,7.44c-.52-1.71-2.24-6.43-6.22-8.94C101.67,36.64,95.18,38.08,95.18,38.08Z"/>
    <path class="d" d="M95.18,38.08s1.48,6.48,6.39,9.58c3.9,2.46,8.77,2.07,10.63,1.8a76.53,76.53,0,0,0-11.84-8,6.52,6.52,0,0,1-1-.64,6.23,6.23,0,0,1,1.15.39,53.73,53.73,0,0,1,12.32,7.44c-.52-1.71-2.24-6.43-6.22-8.94C101.67,36.64,95.18,38.08,95.18,38.08Z"/>
  </g>
  <path class="d" d="M149.32,35.28s-8.36-2.19-14.91,1.6c-5.18,3-7.66,8.86-8.48,11.17a98.55,98.55,0,0,0,16.32-8.85,9.21,9.21,0,0,1,1.36-.81,7.46,7.46,0,0,1-1.15,1.1,69.81,69.81,0,0,1-16,9.72c2.28.43,8.76,1.28,14.06-1.79C147.07,43.63,149.32,35.28,149.32,35.28Z"/>
  <path class="d" d="M185.5,106.4s-6.67-7.36-15.35-7.81c-6.87-.36-12.94,3.72-15.17,5.43a113.45,113.45,0,0,0,21.26,1.71,11,11,0,0,1,1.81.08,8.44,8.44,0,0,1-1.79.34,79.73,79.73,0,0,1-21.49-.69c1.92,1.86,7.63,6.74,14.65,7.11C178.1,113,185.5,106.4,185.5,106.4Z"/>
  <path class="d" d="M115.08,116.19s9.52-2.85,13.67-10.49c3.28-6,2.22-13.28,1.63-16a113,113,0,0,0-10.7,18.45,11.71,11.71,0,0,1-.85,1.6,8.76,8.76,0,0,1,.46-1.76,80.33,80.33,0,0,1,9.88-19.11c-2.5.94-9.37,4-12.73,10.17C112.3,106.65,115.08,116.19,115.08,116.19Z"/>
  <path class="d" d="M156,66.15s-8.36-2.2-14.9,1.6c-5.18,3-7.67,8.86-8.48,11.17a98.19,98.19,0,0,0,16.31-8.86,9.7,9.7,0,0,1,1.36-.8,7.83,7.83,0,0,1-1.14,1.09,69.53,69.53,0,0,1-16,9.72c2.28.44,8.77,1.29,14.06-1.78C153.73,74.49,156,66.15,156,66.15Z"/>
  <path class="d" d="M195.83,96s-8.62,5-17,2.7c-6.65-1.78-11.17-7.53-12.76-9.84a112.94,112.94,0,0,1,20.75,4.92,11.31,11.31,0,0,0,1.75.49,8.89,8.89,0,0,0-1.6-.88,80.07,80.07,0,0,0-20.66-6c2.4-1.17,9.34-4.06,16.13-2.25C190.83,87.42,195.83,96,195.83,96Z"/>
  <g>
    <path class="c" d="M110.52,108.21s-9.27,3.58-17.23.09c-6.3-2.76-9.89-9.13-11.12-11.66a113.17,113.17,0,0,1,19.77,8,9.53,9.53,0,0,0,1.66.74,9.08,9.08,0,0,0-1.45-1.1,80.15,80.15,0,0,0-19.52-9c2.55-.8,9.84-2.6,16.28.22C106.87,99,110.52,108.21,110.52,108.21Z"/>
    <path class="d" d="M110.52,108.21s-9.27,3.58-17.23.09c-6.3-2.76-9.89-9.13-11.12-11.66a113.17,113.17,0,0,1,19.77,8,9.53,9.53,0,0,0,1.66.74,9.08,9.08,0,0,0-1.45-1.1,80.15,80.15,0,0,0-19.52-9c2.55-.8,9.84-2.6,16.28.22C106.87,99,110.52,108.21,110.52,108.21Z"/>
  </g>
  <path class="d" d="M147.63,132.42s-8.84-4.54-11.53-12.8c-2.13-6.54.23-13.46,1.31-16.06a113,113,0,0,1,7.17,20.09,10.81,10.81,0,0,0,.54,1.73,8.49,8.49,0,0,0-.13-1.82A80.16,80.16,0,0,0,138.75,103c2.29,1.38,8.49,5.62,10.66,12.31C152.1,123.55,147.63,132.42,147.63,132.42Z"/>
  <path class="d" d="M140.22,1.67s3.93,9.12.74,17.21c-2.52,6.4-8.75,10.24-11.23,11.55a112.06,112.06,0,0,1,7.26-20,11.93,11.93,0,0,0,.68-1.69,8.92,8.92,0,0,0-1,1.49A79.88,79.88,0,0,0,128.33,30c-.89-2.52-3-9.74-.4-16.28C131.12,5.66,140.22,1.67,140.22,1.67Z"/>
  <path class="d" d="M176.7,50.49s2.26,9.67-2.3,17.07C170.79,73.42,164,76.09,161.3,77A113.14,113.14,0,0,1,172,58.49,10.54,10.54,0,0,0,173,57a8.68,8.68,0,0,0-1.29,1.28A80.36,80.36,0,0,0,160,76.3c-.43-2.63-1.2-10.11,2.49-16.09C167,52.81,176.7,50.49,176.7,50.49Z"/>
  <path class="d" d="M164.17,29s-8.86,4.85-11.37,13.32c-2,6.71.59,13.69,1.76,16.3A115,115,0,0,0,161.31,38a11.15,11.15,0,0,1,.51-1.77,9.38,9.38,0,0,1-.09,1.84,81.63,81.63,0,0,1-5.79,21.1c2.29-1.46,8.48-5.94,10.51-12.8C169,37.89,164.17,29,164.17,29Z"/>
  <polyline class="e" points="-233.09 545.1 526.36 545.1 526.36 -214.34 -233.09 -214.34"/>
</svg>
