<?xml version="1.0" encoding="utf-8"?>
<!-- Generator: Adobe Illustrator 22.0.1, SVG Export Plug-In . SVG Version: 6.00 Build 0)  -->
<svg version="1.1" baseProfile="tiny" id="Réteg_1"
	 xmlns="http://www.w3.org/2000/svg" xmlns:xlink="http://www.w3.org/1999/xlink" x="0px" y="0px" viewBox="0 0 20 20"
	 xml:space="preserve">
<path fill-rule="evenodd" fill="#737371" d="M17.4,3.6L17.4,3.6h-6.3c-0.4,0-3.3,0-3.8,0H2.7c-0.8,0-1.5,0.5-1.5,1.3v10.3
	c0,0.8,0.7,1.4,1.5,1.4h14.7c0.8,0,1.6-0.5,1.6-1.4V4.9C18.9,4.1,18.2,3.6,17.4,3.6L17.4,3.6z"/>
<path fill-rule="evenodd" fill="#7D9376" d="M16.9,9.5L16.9,9.5h0.6c0.1,0,0.1,0.1,0.1,0.2v0.6c0,0.1-0.1,0.1-0.1,0.1h-0.6
	c-0.1,0-0.1-0.1-0.1-0.1V9.7C16.8,9.6,16.8,9.5,16.9,9.5L16.9,9.5z"/>
<path fill-rule="evenodd" fill="#7D9376" d="M16.9,10.7L16.9,10.7h0.6c0.1,0,0.1,0.1,0.1,0.1v0.6c0,0.1-0.1,0.2-0.1,0.2h-0.6
	c-0.1,0-0.1-0.1-0.1-0.2v-0.6C16.8,10.8,16.8,10.7,16.9,10.7L16.9,10.7z"/>
<path fill-rule="evenodd" fill="#7D9376" d="M16.9,11.9L16.9,11.9h0.6c0.1,0,0.1,0.1,0.1,0.2v0.6c0,0.1-0.1,0.2-0.1,0.2l-0.6,0
	c-0.1,0-0.1-0.1-0.1-0.1v-0.6C16.8,12,16.8,11.9,16.9,11.9L16.9,11.9z"/>
<path fill-rule="evenodd" fill="#7D9376" d="M16.5,7.1L16.5,7.1h1.4c0.2,0,0.4,0.1,0.4,0.3v1.4c0,0.2-0.2,0.4-0.4,0.4h-1.4
	c-0.2,0-0.4-0.2-0.4-0.4V7.4C16.2,7.2,16.3,7.1,16.5,7.1L16.5,7.1z"/>
<path fill-rule="evenodd" fill="#FFFFFF" d="M15.5,13.7c0,0.8-0.7,1.6-1.5,1.6H3.9c-0.8,0-1.4-0.8-1.4-1.6V6.4
	c0-0.8,0.6-1.6,1.4-1.6H14c0.8,0,1.5,0.8,1.5,1.6V13.7z"/>
</svg>
