<?xml version="1.0" encoding="utf-8"?>
<!-- Generator: Adobe Illustrator 22.0.1, SVG Export Plug-In . SVG Version: 6.00 Build 0)  -->
<svg version="1.1" baseProfile="tiny" id="Réteg_1"
	 xmlns="http://www.w3.org/2000/svg" xmlns:xlink="http://www.w3.org/1999/xlink" x="0px" y="0px" viewBox="0 0 20 20"
	 xml:space="preserve">
<path fill-rule="evenodd" fill="#6D6D6B" d="M16.8,18.3L16.8,18.3H3.3c-0.6,0-0.9-0.3-0.9-0.8c0-0.1,0-0.2,0.1-0.3l0.8-2.6
	c0.2-0.6,0.9-1.1,1.5-1.1h10.6c0.7,0,1.4,0.5,1.6,1.1l0.8,2.6c0,0.1,0.1,0.2,0.1,0.3C17.7,18,17.4,18.3,16.8,18.3L16.8,18.3z
	 M4.6,14.2L4.6,14.2h10.7c0.5,0,1,0.5,1,1c0,0.6-0.5,1-1,1H4.6c-0.6,0-1-0.4-1-1C3.6,14.7,4.1,14.2,4.6,14.2L4.6,14.2z M9.2,17.1
	L9.2,17.1h1.5c0.3,0,0.5,0.2,0.5,0.5v0.5H8.7v-0.5C8.7,17.3,8.9,17.1,9.2,17.1L9.2,17.1z M15.3,13.5L15.3,13.5H4.7
	c-0.6,0-1.3,0.5-1.4,1.1l-0.8,2.6c0,0.1,0,0.2,0,0.3c0,0.4,0.3,0.8,0.8,0.8h13.5c0.5,0,0.8-0.3,0.8-0.7c0-0.1,0-0.2,0-0.3l-0.8-2.6
	C16.5,14,15.9,13.5,15.3,13.5L15.3,13.5z M19.1,17.9L18,13.8c-0.2-0.6-0.8-1.1-1.4-1.1H3.4c-0.6,0-1.3,0.5-1.4,1.1l-1.1,4.1
	c-0.2,0.6,0.2,1.1,0.8,1.1h16.7C18.9,19.1,19.3,18.6,19.1,17.9L19.1,17.9z"/>
<path fill-rule="evenodd" fill="#7D9376" d="M2.5,2.4L2.5,2.4h14.9V11H2.5V2.4z M1.8,12.3L1.8,12.3h16.3c0.4,0,0.7-0.3,0.7-0.7V1.7
	c0-0.4-0.3-0.7-0.7-0.7H1.8C1.4,1,1.1,1.3,1.1,1.7v9.9C1.1,12,1.4,12.3,1.8,12.3L1.8,12.3z"/>
</svg>
