<?xml version="1.0" encoding="utf-8"?>
<!-- Generator: Adobe Illustrator 22.0.1, SVG Export Plug-In . SVG Version: 6.00 Build 0)  -->
<svg version="1.1" id="Réteg_1" xmlns="http://www.w3.org/2000/svg" xmlns:xlink="http://www.w3.org/1999/xlink" x="0px" y="0px"
	 viewBox="0 0 652 656" style="enable-background:new 0 0 652 656;" xml:space="preserve">
<style type="text/css">
	.st0{fill:#B3A49B;}
</style>
<path class="st0" d="M646.1,430.8c-5.1-17.8-12.6-30.2-26-43.4c-22.8-22.5-54.6-36.4-94.1-41.1c-29-3.4-54.2,0.2-77.2,11.1
	c-11.3,5.3-17,9.1-25.1,16.9c-14.7,14.1-22.2,29.6-22.2,46.3c0,9.3,1.8,15.9,7,26.3c18.2,36.3,59,61.9,109,68.6
	c20.4,2.7,50.3,0.9,67.7-4.2c28.3-8.2,51-28.1,59.4-52.1C647.2,451.8,648,437.2,646.1,430.8z"/>
<path class="st0" d="M642.7,191.9c-8-24.3-31.9-44.4-61.8-52c-4.1-1.1-14.2-2.5-22.4-3.2c-49.2-4-99.2,12.9-130,44.1
	c-12.3,12.4-22.9,30-26.6,44.1c-5.3,20.2,6.4,46.8,27,61.4c19.7,14,42.7,20.6,72.1,20.6c17.4,0,31.2-1.8,47.3-6
	c47.1-12.3,80.2-39.2,93.2-76C644.7,215.9,645.3,199.8,642.7,191.9z"/>
<path class="st0" d="M451.9,577.9c-4.9-23.2-21.1-46.9-42.8-63c-21.8-16-46.3-25.7-75.8-30c-16.7-2.4-23.3-2.5-35.8-0.5
	c-19.7,3.2-36.6,11.2-48.5,23c-8.3,8.2-13.1,16-15.6,25.8c-5.9,22.2,3.9,51.1,25.1,74c13.6,14.8,39,30.6,60.7,37.7
	c19.9,6.6,45.4,9.8,62.9,8c15.6-1.6,33-7.8,44.8-15.9c4.1-2.8,12.7-11.3,16.4-16.1C452.1,609.5,455.3,593.5,451.9,577.9z"/>
<path class="st0" d="M439.8,60.4c-3.9-25.5-20.5-44.8-44.3-51.5c-18-5-37.1-6.2-55.9-3.4c-33.2,4.9-63.1,19.4-85.2,41.4
	c-15.1,15.1-23.8,29-30.1,48c-7.3,22.5-2,42.4,15.5,58.6c14.9,13.8,30.2,19.1,58.2,20.1c12.5,0.4,17.1,0.2,27.4-1.6
	c32.3-5.5,59.4-19.4,82.2-42c15.3-15.2,26.8-32.8,30.3-46.4C439.5,77.6,440.5,64.9,439.8,60.4z"/>
<path class="st0" d="M311.5,319.1c-6-47.1-33.2-93-72.5-121.9c-33.2-24.5-67.7-43.4-101.9-55.7c-22.9-8.3-53.3-15.6-65.2-15.6
	c-27,0-53.8,17.3-63.5,41c-3.7,9.1-5.3,20.4-4.4,31C5.5,217,9,230,22,264.4c13.9,36.8,16.5,46.3,19.1,68.3
	c3.6,30.1-0.6,50.2-19.4,94.2c-16.6,38.9-19.2,47.7-19.2,64c0,30.5,16,54.9,40.8,62.3c9,2.6,31.4,2.8,41.7,0.3
	c26-6.3,52.1-17.8,80.5-35.4c63.7-39.5,99-70,123.5-106.7c10.9-16.3,17.5-31.8,21-49.6C311.9,352.6,312.7,328.8,311.5,319.1z"/>
</svg>
